<svg width="54" height="53" viewBox="0 0 54 53" fill="none" xmlns="http://www.w3.org/2000/svg">
<path d="M47.666 9.03463H42.041V3.82213C42.0518 3.26162 41.9368 2.70584 41.7044 2.19565C41.472 1.68547 41.1282 1.23388 40.6983 0.874108C40.2684 0.514333 39.7633 0.255529 39.2201 0.116739C38.6769 -0.022051 38.1096 -0.0372959 37.5598 0.0721259L30.6035 1.53463H23.4785L16.5223 0.147126C15.9787 0.0390554 15.4179 0.0528103 14.8803 0.187401C14.3427 0.321991 13.8416 0.57407 13.4131 0.925502C12.9845 1.27693 12.6392 1.71898 12.402 2.21984C12.1647 2.7207 12.0415 3.26792 12.041 3.82213V9.03463H6.41602C4.92417 9.03463 3.49343 9.62726 2.43854 10.6821C1.38365 11.737 0.791016 13.1678 0.791016 14.6596V18.4096C0.791016 18.9069 0.98856 19.3838 1.34019 19.7354C1.69182 20.0871 2.16873 20.2846 2.66602 20.2846H4.54102V46.5346C4.54102 48.0265 5.13365 49.4572 6.18854 50.5121C7.24343 51.567 8.67417 52.1596 10.166 52.1596H43.916C45.4079 52.1596 46.8386 51.567 47.8935 50.5121C48.9484 49.4572 49.541 48.0265 49.541 46.5346V20.2846H51.416C51.9133 20.2846 52.3902 20.0871 52.7418 19.7354C53.0935 19.3838 53.291 18.9069 53.291 18.4096V14.6596C53.291 13.1678 52.6984 11.737 51.6435 10.6821C50.5886 9.62726 49.1579 9.03463 47.666 9.03463ZM25.166 5.28463H28.916V9.03463H25.166V5.28463ZM19.541 48.4096H10.166C9.66873 48.4096 9.19182 48.2121 8.84019 47.8605C8.48856 47.5088 8.29102 47.0319 8.29102 46.5346V20.2846H19.541V48.4096ZM19.541 16.5346H4.54102V14.6596C4.54102 14.1623 4.73856 13.6854 5.09019 13.3338C5.44182 12.9822 5.91873 12.7846 6.41602 12.7846H19.541V16.5346ZM21.416 9.03463H15.791V3.82213L21.416 4.94713V9.03463ZM30.791 18.4096V48.4096H23.291V12.7846H30.791V18.4096ZM32.666 4.94713L38.291 3.82213V9.03463H32.666V4.94713ZM45.791 46.5346C45.791 47.0319 45.5935 47.5088 45.2418 47.8605C44.8902 48.2121 44.4133 48.4096 43.916 48.4096H34.541V20.2846H45.791V46.5346ZM49.541 16.5346H34.541V12.7846H47.666C48.1633 12.7846 48.6402 12.9822 48.9918 13.3338C49.3435 13.6854 49.541 14.1623 49.541 14.6596V16.5346Z" fill="#5CAD8B"/>
</svg>
