<svg width="45" height="60" viewBox="0 0 45 60" fill="none" xmlns="http://www.w3.org/2000/svg">
<path d="M42.3977 31.4775C41.0037 29.675 38.9003 28.437 36.0874 27.7641C39.6694 25.9369 41.2436 22.8359 40.8114 18.4603C40.6669 16.8737 40.2284 15.4986 39.4949 14.333C38.7608 13.1671 37.7703 12.2299 36.5195 11.5209C35.2696 10.8109 33.9103 10.2705 32.4446 9.89795C30.9786 9.52538 29.2954 9.25485 27.3963 9.08675V0H21.8439V8.83429C20.8824 8.83429 19.4161 8.85828 17.4451 8.9064V0H11.8918V9.08675C11.0983 9.11088 9.93261 9.12313 8.3942 9.12313L0.75 9.08675V15.0004H4.7522C6.5792 15.0004 7.64892 15.818 7.96138 17.4524V27.8013C8.2021 27.8013 8.3942 27.8137 8.53855 27.8377H7.96138V42.3326C7.76928 43.5583 7.07226 44.1717 5.87017 44.1717H1.86823L0.750252 50.7705H7.96201C8.41883 50.7705 9.07948 50.7766 9.94524 50.7875C10.8105 50.7996 11.4593 50.8056 11.8921 50.8056V60.0004H17.4462V50.9138C18.4556 50.9384 19.9219 50.9501 21.845 50.9501V60.0004H27.3976V50.8056C29.3692 50.7097 31.1179 50.5303 32.6437 50.265C34.1702 49.9996 35.631 49.5856 37.0249 49.0203C38.4187 48.4558 39.5844 47.7522 40.5218 46.9108C41.4597 46.0702 42.2342 44.9999 42.8483 43.7016C43.4603 42.4033 43.8514 40.9009 44.0192 39.1937C44.333 35.8532 43.7918 33.2808 42.3977 31.4775ZM17.5531 15.396C17.7214 15.396 18.1962 15.3899 18.9774 15.3778C19.7591 15.3654 20.4079 15.3536 20.9247 15.3414C21.4416 15.3296 22.1388 15.3596 23.0165 15.4317C23.8939 15.5039 24.633 15.6002 25.2338 15.7202C25.8346 15.8402 26.4962 16.0386 27.2167 16.3151C27.9385 16.5913 28.5151 16.928 28.9472 17.3245C29.3803 17.7211 29.7468 18.2262 30.0468 18.8392C30.3476 19.4521 30.4979 20.1552 30.4979 20.9484C30.4979 21.6215 30.3899 22.2347 30.1738 22.7879C29.9581 23.3407 29.6328 23.8035 29.2006 24.1761C28.7683 24.5488 28.3227 24.8736 27.8659 25.1499C27.4096 25.4261 26.8261 25.6486 26.1172 25.8167C25.4084 25.985 24.7895 26.1173 24.2609 26.2133C23.732 26.3095 23.0711 26.3758 22.2777 26.4117C21.4842 26.4475 20.883 26.472 20.4745 26.4839C20.0657 26.4958 19.507 26.4958 18.7976 26.4839C18.0881 26.472 17.6739 26.4657 17.5534 26.4657V15.3959H17.5531V15.396ZM32.7162 39.9514C32.4872 40.5046 32.1932 40.9856 31.8329 41.3946C31.4719 41.8025 30.9969 42.1635 30.4082 42.4755C29.8197 42.7885 29.2482 43.0405 28.6958 43.2328C28.1426 43.4259 27.4753 43.5933 26.6948 43.738C25.9125 43.8823 25.2278 43.9839 24.6383 44.0444C24.0496 44.1046 23.3468 44.1525 22.5291 44.1889C21.7121 44.2242 21.0747 44.2425 20.6181 44.2425C20.1613 44.2425 19.5843 44.236 18.8871 44.2242C18.1896 44.213 17.7453 44.2069 17.5528 44.2069V32.0187C17.7449 32.0187 18.3159 32.007 19.2656 31.9825C20.2155 31.9582 20.9903 31.947 21.5914 31.947C22.1923 31.947 23.0219 31.9825 24.08 32.0551C25.1371 32.1267 26.0266 32.2344 26.7484 32.3787C27.4693 32.5231 28.256 32.7452 29.11 33.046C29.9632 33.3463 30.6546 33.7129 31.1837 34.1455C31.7126 34.579 32.1571 35.131 32.5175 35.8043C32.8788 36.4772 33.0591 37.2466 33.0591 38.1123C33.0589 38.786 32.9449 39.3981 32.7162 39.9514Z" fill="#5CAD8B"/>
</svg>
