<svg width="60" height="53" viewBox="0 0 60 53" fill="none" xmlns="http://www.w3.org/2000/svg">
<path d="M59.7066 13.8526L45.7341 0.451219C45.5602 0.286406 45.3295 0 45.0901 0H14.9097C14.6704 0 14.4396 0.286406 14.2656 0.451219L0.293335 13.7552C-0.0572903 14.0866 -0.0989153 14.6792 0.197241 15.06C0.394116 15.3135 29.0946 52.3028 29.3082 52.5424C29.4041 52.6502 29.5335 52.7501 29.6296 52.7918C29.8887 52.9049 30.1056 52.9134 30.3703 52.7979C30.4664 52.7562 30.5957 52.6715 30.6917 52.5637C30.7058 52.5478 30.727 52.5426 30.7401 52.5257L59.8026 15.108C60.0988 14.7271 60.0572 14.184 59.7066 13.8526ZM14.6506 2.47266L19.3329 13.125H3.38071L14.6506 2.47266ZM22.5745 13.125L29.9999 2.56716L37.4254 13.125H22.5745ZM38.1741 15L29.9999 47.6972L21.8257 15H38.1741V15ZM31.8053 1.875H43.5637L39.0412 12.1637L31.8053 1.875ZM20.9586 12.1637L16.4361 1.875H28.1946L20.9586 12.1637ZM19.8929 15L28.0113 47.4735L2.78943 15H19.8929ZM40.107 15H57.2105L31.9886 47.4735L40.107 15ZM40.667 13.125L45.3493 2.47266L56.6192 13.125H40.667Z" fill="#5CAD8B"/>
</svg>
