<svg width="20" height="19" viewBox="0 0 20 19" fill="none" xmlns="http://www.w3.org/2000/svg">
<path d="M17.316 9.2688H11.5978C11.4359 9.2688 11.3047 9.40001 11.3047 9.56188C11.3047 9.7238 11.4359 9.85501 11.5978 9.85501H17.316C17.4779 9.85501 17.6091 9.7238 17.6091 9.56188C17.6091 9.40001 17.4779 9.2688 17.316 9.2688Z" fill="#1A6545"/>
<path d="M17.3157 10.729H16.2989C16.1371 10.729 16.0059 10.8602 16.0059 11.0221C16.0059 11.184 16.1371 11.3152 16.2989 11.3152H17.3157C17.4776 11.3152 17.6087 11.184 17.6087 11.0221C17.6087 10.8602 17.4776 10.729 17.3157 10.729Z" fill="#1A6545"/>
<path d="M10.9396 11.3153H14.9364C15.0984 11.3153 15.2296 11.1841 15.2296 11.0222C15.2296 10.8603 15.0984 10.7291 14.9364 10.7291H10.9396C10.7777 10.7291 10.6465 10.8603 10.6465 11.0222C10.6465 11.1841 10.7777 11.3153 10.9396 11.3153Z" fill="#1A6545"/>
<path d="M17.3165 12.1893H10.9396C10.7777 12.1893 10.6465 12.3205 10.6465 12.4824C10.6465 12.6443 10.7777 12.7755 10.9396 12.7755H17.3165C17.4784 12.7755 17.6096 12.6443 17.6096 12.4824C17.6096 12.3205 17.4784 12.1893 17.3165 12.1893Z" fill="#1A6545"/>
<path d="M17.3155 13.6497H14.1271C13.9652 13.6497 13.834 13.7809 13.834 13.9427C13.834 14.1046 13.9652 14.2358 14.1271 14.2358H17.3156C17.4775 14.2358 17.6087 14.1046 17.6087 13.9427C17.6087 13.7809 17.4775 13.6497 17.3155 13.6497Z" fill="#1A6545"/>
<path d="M10.9396 13.6497C10.7777 13.6497 10.6465 13.7809 10.6465 13.9427C10.6465 14.1046 10.7777 14.2358 10.9396 14.2358H12.7665C12.9284 14.2358 13.0596 14.1046 13.0596 13.9427C13.0596 13.7809 12.9284 13.6497 12.7665 13.6497H10.9396Z" fill="#1A6545"/>
<path d="M19.7206 9.99434C19.671 9.84019 19.5058 9.75535 19.3518 9.80504C19.1977 9.85457 19.1129 10.0197 19.1625 10.1738C19.33 10.6947 19.4145 11.238 19.4138 11.7887C19.411 13.7459 18.3343 15.5328 16.6039 16.452C16.4357 16.5413 16.3313 16.7152 16.3313 16.9059V18.0984L15.2056 17.1416C15.0956 17.0481 14.9496 17.0052 14.8055 17.0237C14.581 17.0525 14.353 17.067 14.1277 17.067C11.213 17.067 8.84165 14.6957 8.84165 11.781C8.84165 11.48 8.86723 11.1832 8.91626 10.8924C10.2657 10.0711 11.2593 8.72102 11.608 7.13219C12.3727 6.71625 13.2328 6.49488 14.1273 6.49488C14.1411 6.49488 14.1551 6.49492 14.1689 6.49504C15.9825 6.50883 17.6439 7.44246 18.6132 8.99262C18.699 9.12984 18.8799 9.17144 19.0171 9.08574C19.1543 8.99988 19.1961 8.81906 19.1102 8.6818C18.0341 6.96078 16.1885 5.92414 14.1734 5.90883C13.312 5.90203 12.4793 6.0798 11.7186 6.4225C11.7355 6.24129 11.7445 6.05785 11.7445 5.87227C11.7445 4.29527 11.1281 2.815 10.0087 1.7041C8.90032 0.604063 7.43313 0 5.8727 0C5.85739 0 5.842 3.90512e-05 5.82669 0.000156239C4.10774 0.0132812 2.48399 0.78207 1.3718 2.10945C1.26786 2.23352 1.28415 2.4184 1.40825 2.52234C1.53235 2.62637 1.71723 2.61 1.82114 2.4859C2.82278 1.29047 4.28434 0.598125 5.8311 0.586367C5.84501 0.58625 5.85872 0.586211 5.87255 0.586211C7.27715 0.586211 8.59805 1.13004 9.59571 2.12016C10.6034 3.1202 11.1583 4.4527 11.1583 5.87227C11.1583 8.78699 8.787 11.1583 5.87227 11.1583C5.64676 11.1583 5.41872 11.1438 5.19442 11.115C5.05024 11.0965 4.90419 11.1395 4.79426 11.233L3.66868 12.1897V10.9973C3.66868 10.8066 3.56423 10.6327 3.39614 10.5434C1.66571 9.6241 0.58899 7.83719 0.586178 5.88C0.585006 5.06441 0.766842 4.28078 1.12657 3.55078C1.19813 3.40555 1.13844 3.22984 0.993209 3.15828C0.847936 3.08672 0.672272 3.14641 0.600709 3.29164C0.200826 4.1032 -0.00128294 4.97438 6.12737e-06 5.88086C0.00309206 8.04043 1.18294 10.0133 3.08247 11.0404V12.3446C3.08247 12.5475 3.19688 12.7265 3.3811 12.8117C3.45126 12.8441 3.52524 12.8601 3.59852 12.8601C3.71751 12.8601 3.83465 12.818 3.93032 12.7367L5.14977 11.7002C5.38899 11.7296 5.63192 11.7445 5.87227 11.7445C6.73032 11.7445 7.5459 11.5595 8.28137 11.2273C8.26438 11.4102 8.25547 11.5949 8.25547 11.7809C8.25547 15.0189 10.8897 17.6532 14.1277 17.6532C14.3678 17.6532 14.6107 17.6383 14.8503 17.6088L16.0697 18.6454C16.1654 18.7267 16.2825 18.7687 16.4015 18.7687C16.4748 18.7687 16.5488 18.7528 16.619 18.7204C16.8031 18.6352 16.9175 18.4562 16.9175 18.2533V16.949C18.817 15.922 19.9969 13.9491 20 11.7895C20.0009 11.1776 19.9068 10.5736 19.7206 9.99434Z" fill="#1A6545"/>
<path d="M5.38672 8.49905C5.38672 8.76678 5.60375 8.98381 5.87148 8.98381C6.13922 8.98381 6.35625 8.76678 6.35625 8.49905C6.35625 8.23131 6.13922 8.01428 5.87148 8.01428C5.60375 8.01428 5.38672 8.23131 5.38672 8.49905Z" fill="#1A6545"/>
<path d="M6.60012 5.78645C7.28773 5.48055 7.71352 4.76985 7.65965 4.01797C7.59816 3.16063 6.90773 2.45082 6.05356 2.36692C5.0916 2.27215 4.23246 2.94555 4.09926 3.89985C4.08785 3.982 4.08203 4.06586 4.08203 4.14918C4.08203 4.3111 4.21324 4.44227 4.37512 4.44227C4.53699 4.44227 4.6682 4.31106 4.6682 4.14918C4.6682 4.09282 4.67215 4.0361 4.6798 3.98075C4.76938 3.33914 5.34711 2.88704 5.99617 2.95032C6.56984 3.00668 7.03355 3.48372 7.07488 4.05993C7.11117 4.56637 6.82461 5.045 6.3618 5.2509C5.88688 5.46215 5.58004 5.92875 5.58004 6.43957V7.00497C5.58004 7.16688 5.71125 7.29805 5.87313 7.29805C6.03504 7.29805 6.16625 7.16684 6.16625 7.00497V6.43957C6.16633 6.16 6.3366 5.90372 6.60012 5.78645Z" fill="#1A6545"/>
</svg>
