<svg width="18" height="14" viewBox="0 0 18 14" fill="none" xmlns="http://www.w3.org/2000/svg">
<path d="M7.22032 4.66625H6.64165V4.08759C6.64165 3.93447 6.58083 3.78762 6.47256 3.67935C6.36429 3.57108 6.21744 3.51025 6.06432 3.51025C5.9112 3.51025 5.76436 3.57108 5.65608 3.67935C5.54781 3.78762 5.48699 3.93447 5.48699 4.08759V4.66625H4.90832C4.75983 4.67339 4.61978 4.7374 4.51721 4.84501C4.41464 4.95263 4.35742 5.09559 4.35742 5.24425C4.35742 5.39292 4.41464 5.53588 4.51721 5.64349C4.61978 5.75111 4.75983 5.81512 4.90832 5.82225H5.48699V6.39959C5.48699 6.55271 5.54781 6.69955 5.65608 6.80782C5.76436 6.91609 5.9112 6.97692 6.06432 6.97692C6.21744 6.97692 6.36429 6.91609 6.47256 6.80782C6.58083 6.69955 6.64165 6.55271 6.64165 6.39959V5.82225H7.22032C7.36881 5.81512 7.50886 5.75111 7.61143 5.64349C7.714 5.53588 7.77122 5.39292 7.77122 5.24425C7.77122 5.09559 7.714 4.95263 7.61143 4.84501C7.50886 4.7374 7.36881 4.67339 7.22032 4.66625Z" stroke="#1A6545" stroke-width="0.4" stroke-linecap="round" stroke-linejoin="round"/>
<path d="M12.2387 6.029C12.3321 6.02873 12.4235 6.05619 12.5013 6.10789C12.5791 6.1596 12.6398 6.23322 12.6757 6.31944C12.7116 6.40567 12.7212 6.50061 12.7031 6.59226C12.685 6.68391 12.6402 6.76813 12.5742 6.83428C12.5083 6.90042 12.4242 6.94551 12.3326 6.96383C12.241 6.98215 12.146 6.97288 12.0597 6.93719C11.9734 6.90151 11.8996 6.84101 11.8476 6.76336C11.7957 6.68572 11.768 6.59441 11.768 6.501C11.7684 6.37615 11.818 6.2565 11.9062 6.1681C11.9943 6.0797 12.1138 6.0297 12.2387 6.029ZM12.2387 5.76233C12.0926 5.76233 11.9498 5.80565 11.8283 5.88682C11.7068 5.96798 11.6121 6.08335 11.5562 6.21832C11.5003 6.35329 11.4857 6.50182 11.5142 6.6451C11.5427 6.78839 11.613 6.92001 11.7164 7.02331C11.8197 7.12662 11.9513 7.19697 12.0946 7.22547C12.2378 7.25397 12.3864 7.23934 12.5213 7.18344C12.6563 7.12753 12.7717 7.03285 12.8528 6.91138C12.934 6.78991 12.9773 6.64709 12.9773 6.501C12.9775 6.40394 12.9585 6.30781 12.9215 6.21811C12.8844 6.12841 12.83 6.04692 12.7614 5.97829C12.6927 5.90966 12.6112 5.85526 12.5215 5.8182C12.4319 5.78114 12.3357 5.76215 12.2387 5.76233Z" fill="#1A6545"/>
<path d="M12.2403 3.52228C12.3314 3.52202 12.4205 3.54881 12.4964 3.59925C12.5723 3.64969 12.6314 3.72152 12.6664 3.80563C12.7014 3.88974 12.7106 3.98234 12.6929 4.07169C12.6752 4.16105 12.6314 4.24314 12.5669 4.30755C12.5025 4.37196 12.4204 4.4158 12.3311 4.43351C12.2417 4.45121 12.1491 4.44199 12.065 4.40701C11.9809 4.37203 11.9091 4.31286 11.8586 4.23701C11.8082 4.16116 11.7814 4.07204 11.7817 3.98095C11.782 3.85941 11.8305 3.74295 11.9164 3.65701C12.0023 3.57107 12.1188 3.52263 12.2403 3.52228ZM12.2403 3.25562C12.0966 3.25562 11.956 3.29827 11.8365 3.37817C11.717 3.45808 11.6238 3.57165 11.5689 3.70451C11.5139 3.83737 11.4996 3.98354 11.5277 4.12454C11.5559 4.26553 11.6252 4.39501 11.727 4.49658C11.8287 4.59816 11.9583 4.66726 12.0994 4.69515C12.2404 4.72304 12.3866 4.70846 12.5193 4.65325C12.6521 4.59805 12.7655 4.5047 12.8452 4.38503C12.9249 4.26535 12.9673 4.12473 12.967 3.98095C12.9667 3.78846 12.8899 3.60397 12.7537 3.46798C12.6175 3.33199 12.4328 3.25561 12.2403 3.25562Z" fill="#1A6545"/>
<path d="M13.5053 4.78901C13.5963 4.78901 13.6853 4.81599 13.7609 4.86653C13.8366 4.91708 13.8955 4.98892 13.9303 5.07297C13.9651 5.15703 13.9743 5.24952 13.9565 5.33875C13.9388 5.42798 13.8949 5.50994 13.8306 5.57428C13.7663 5.63861 13.6843 5.68242 13.5951 5.70017C13.5059 5.71792 13.4134 5.70881 13.3293 5.67399C13.2453 5.63917 13.1734 5.58022 13.1229 5.50457C13.0723 5.42892 13.0453 5.33999 13.0453 5.24901C13.0453 5.12701 13.0938 5.01 13.1801 4.92374C13.2663 4.83747 13.3833 4.78901 13.5053 4.78901ZM13.5053 4.52234C13.3616 4.52208 13.2209 4.56447 13.1013 4.64416C12.9816 4.72384 12.8882 4.83724 12.833 4.97C12.7778 5.10276 12.7633 5.24891 12.7911 5.38995C12.819 5.531 12.8881 5.66061 12.9897 5.76236C13.0913 5.86412 13.2208 5.93347 13.3618 5.96161C13.5027 5.98976 13.6489 5.97545 13.7818 5.92049C13.9146 5.86553 14.0282 5.77239 14.1081 5.65286C14.188 5.53333 14.2307 5.39278 14.2307 5.24901C14.2307 5.05651 14.1543 4.87188 14.0183 4.73565C13.8823 4.59941 13.6978 4.52269 13.5053 4.52234Z" fill="#1A6545"/>
<path d="M10.9741 4.78901C11.0651 4.78874 11.1542 4.8155 11.23 4.86588C11.3058 4.91627 11.365 4.98802 11.4 5.07205C11.435 5.15608 11.4443 5.24861 11.4268 5.33793C11.4092 5.42725 11.3654 5.50934 11.3012 5.5738C11.2369 5.63827 11.1549 5.68221 11.0657 5.70007C10.9764 5.71793 10.8838 5.70889 10.7997 5.67412C10.7156 5.63934 10.6436 5.58038 10.593 5.50471C10.5424 5.42903 10.5154 5.34004 10.5154 5.24901C10.5154 5.12724 10.5637 5.01044 10.6497 4.92421C10.7357 4.83798 10.8523 4.78936 10.9741 4.78901ZM10.9741 4.52234C10.8303 4.52208 10.6897 4.56447 10.57 4.64416C10.4503 4.72384 10.357 4.83724 10.3018 4.97C10.2466 5.10276 10.232 5.24891 10.2599 5.38995C10.2878 5.531 10.3569 5.66061 10.4585 5.76236C10.56 5.86412 10.6895 5.93347 10.8305 5.96161C10.9715 5.98976 11.1177 5.97545 11.2505 5.92049C11.3834 5.86553 11.497 5.77239 11.5769 5.65286C11.6568 5.53333 11.6994 5.39278 11.6994 5.24901C11.6996 5.15364 11.681 5.05918 11.6446 4.97102C11.6082 4.88287 11.5548 4.80275 11.4875 4.73526C11.4201 4.66776 11.3401 4.61421 11.252 4.57768C11.1639 4.54115 11.0695 4.52234 10.9741 4.52234Z" fill="#1A6545"/>
<path d="M9.1423 9.48224C12.9836 9.48224 12.9036 9.47158 13.909 11.1182C14.1974 11.6087 14.5376 12.0669 14.9236 12.4849C15.0161 12.5884 15.1281 12.6727 15.2533 12.7328C15.3784 12.793 15.5141 12.8278 15.6527 12.8354C15.7914 12.8429 15.9301 12.823 16.061 12.7769C16.1919 12.7307 16.3124 12.6591 16.4156 12.5662C16.9676 12.0649 17.529 11.0182 17.1343 8.86758C16.4436 5.10224 15.5343 2.85958 15.281 2.39958C15.0276 1.93958 13.837 1.11158 12.833 1.02358C11.829 0.935578 11.5436 1.12224 9.1423 1.12224C6.74097 1.12224 6.4583 0.935578 5.45297 1.02358C4.44764 1.11158 3.2663 1.93825 2.99964 2.39958C2.73297 2.86091 1.83697 5.10224 1.1463 8.86758C0.746302 11.0196 1.31297 12.0676 1.86497 12.5662C1.96816 12.6591 2.08867 12.7307 2.21958 12.7769C2.3505 12.823 2.48924 12.8429 2.62786 12.8354C2.76647 12.8278 2.90223 12.793 3.02735 12.7328C3.15247 12.6727 3.26448 12.5884 3.35697 12.4849C3.74305 12.0669 4.08322 11.6087 4.37164 11.1182C5.3823 9.47158 5.3023 9.48224 9.1423 9.48224Z" stroke="#1A6545" stroke-linecap="round" stroke-linejoin="round"/>
</svg>
