<svg width="20" height="13" viewBox="0 0 20 13" fill="none" xmlns="http://www.w3.org/2000/svg">
<path d="M15.6783 4.23877C16.0981 4.23877 16.4396 3.89682 16.4396 3.47644C16.4396 3.05606 16.0981 2.71411 15.6783 2.71411C15.2581 2.71411 14.916 3.05606 14.916 3.47644C14.916 3.89682 15.2581 4.23877 15.6783 4.23877ZM15.6783 3.2999C15.7752 3.2999 15.8538 3.37909 15.8538 3.47644C15.8538 3.57227 15.7736 3.65314 15.6783 3.65314C15.581 3.65314 15.5018 3.57379 15.5018 3.47644C15.5018 3.37909 15.5811 3.2999 15.6783 3.2999Z" fill="#1A6545"/>
<path d="M15.6783 5.12341C15.2581 5.12341 14.916 5.46552 14.916 5.88589C14.916 6.30627 15.2581 6.64822 15.6783 6.64822C16.0981 6.64822 16.4396 6.30627 16.4396 5.88589C16.4396 5.46552 16.0981 5.12341 15.6783 5.12341ZM15.6783 6.06244C15.581 6.06244 15.5018 5.98325 15.5018 5.88589C15.5018 5.78854 15.581 5.7092 15.6783 5.7092C15.7736 5.7092 15.8538 5.79007 15.8538 5.88589C15.854 5.98325 15.7752 6.06244 15.6783 6.06244Z" fill="#1A6545"/>
<path d="M15.2356 4.68115C15.2356 4.26093 14.8936 3.91882 14.4733 3.91882C14.0529 3.91882 13.7109 4.26077 13.7109 4.68115C13.7109 5.10153 14.0529 5.44363 14.4733 5.44363C14.8936 5.44363 15.2356 5.10153 15.2356 4.68115ZM14.4733 4.85785C14.3759 4.85785 14.2967 4.77866 14.2967 4.68115C14.2967 4.5838 14.3759 4.50461 14.4733 4.50461C14.5706 4.50461 14.65 4.5838 14.65 4.68115C14.65 4.77866 14.5706 4.85785 14.4733 4.85785Z" fill="#1A6545"/>
<path d="M16.8836 3.91882C16.4632 3.91882 16.1211 4.26077 16.1211 4.68115C16.1211 5.10153 16.4632 5.44363 16.8836 5.44363C17.304 5.44363 17.6459 5.10153 17.6459 4.68115C17.6459 4.26093 17.304 3.91882 16.8836 3.91882ZM16.8836 4.85785C16.7862 4.85785 16.7069 4.77866 16.7069 4.68115C16.7069 4.5838 16.7862 4.50461 16.8836 4.50461C16.9809 4.50461 17.0601 4.5838 17.0601 4.68115C17.0601 4.77866 16.9809 4.85785 16.8836 4.85785Z" fill="#1A6545"/>
<path d="M7.2688 5.80225C6.50357 5.80225 5.88086 6.4248 5.88086 7.19019C5.88086 7.95557 6.50357 8.57812 7.2688 8.57812C8.03418 8.57812 8.65674 7.95541 8.65674 7.19019C8.65674 6.4248 8.03418 5.80225 7.2688 5.80225ZM7.2688 7.99249C6.82645 7.99249 6.46664 7.63254 6.46664 7.19019C6.46664 6.74783 6.82645 6.38803 7.2688 6.38803C7.71115 6.38803 8.07111 6.74783 8.07111 7.19019C8.07111 7.63254 7.71115 7.99249 7.2688 7.99249Z" fill="#1A6545"/>
<path d="M19.8657 9.17648L18.455 3.35312C18.2521 2.51556 17.8491 1.87714 17.2572 1.45554C17.1351 1.36856 17.0056 1.29181 16.8699 1.22559V1.10565C16.8699 0.496063 16.3745 0.000152588 15.7655 0.000152588H15.1089C14.4992 0.000152588 14.0033 0.496063 14.0033 1.10565V1.27487C13.7669 1.40366 13.5803 1.56067 13.4683 1.73416H10.6433C10.4815 1.73416 10.3503 1.86523 10.3503 2.02698C10.3503 2.18872 10.4815 2.31995 10.6433 2.31995H13.361V2.9184C13.361 3.24905 13.0925 3.51807 12.7626 3.51807H7.23737C6.90686 3.51807 6.63785 3.24905 6.63785 2.9184V2.31995H9.29029C9.45203 2.31995 9.5831 2.18872 9.5831 2.02698C9.5831 1.86523 9.45203 1.73416 9.29029 1.73416H6.53058C6.41889 1.56097 6.23273 1.40411 5.99668 1.27533V1.10565C5.99668 0.496063 5.50077 0 4.89103 0H4.23566C3.62592 0 3.13001 0.496063 3.13001 1.10565V1.22543C2.99466 1.29166 2.86557 1.36826 2.74366 1.45493C2.15131 1.87637 1.74802 2.51511 1.54493 3.35312L0.134251 9.17633C-0.0734212 10.0331 -0.0400045 10.7579 0.233433 11.3307C0.478031 11.8428 0.902226 12.2043 1.46024 12.3758C2.65607 12.7435 4.05622 12.1298 4.45661 11.0625L5.13425 9.25751C5.22138 9.02527 5.2905 8.99582 5.29126 8.99551C5.2992 8.99368 5.3523 9.00055 5.45301 9.0741C6.40195 9.93576 7.95606 9.89853 8.97947 9.00558H11.0203C11.4938 9.41895 12.0955 9.6637 12.7275 9.69772C13.4175 9.7348 14.0626 9.5134 14.5468 9.0741C14.6603 8.99109 14.7078 8.99506 14.7082 8.99551C14.7088 8.99582 14.7778 9.02512 14.8655 9.25735L15.5421 11.0625C15.8638 11.9188 16.8286 12.4831 17.8149 12.4829C18.0584 12.4829 18.3033 12.4486 18.5402 12.3756C19.098 12.204 19.5221 11.8425 19.7665 11.3303C20.0399 10.7576 20.0734 10.033 19.8657 9.17648ZM15.1088 0.585785H15.7654C16.0197 0.585785 16.2315 0.770264 16.2755 1.01273C16.0324 0.953674 15.7771 0.922546 15.5133 0.921631C15.5092 0.921631 15.5052 0.921631 15.5012 0.921631C15.184 0.921631 14.8744 0.965271 14.5932 1.04218C14.6248 0.785522 14.8437 0.585785 15.1088 0.585785ZM4.23566 0.585785H4.89103C5.15622 0.585785 5.37519 0.785523 5.40662 1.04233C5.12555 0.965424 4.8158 0.921631 4.49857 0.921631C4.49521 0.921631 4.49186 0.921631 4.4885 0.921631C4.22406 0.922394 3.96817 0.953522 3.72449 1.01273C3.76859 0.770264 3.98069 0.585785 4.23566 0.585785ZM18.3679 11.8158C17.5569 12.0654 16.4105 11.7082 16.0907 10.8566L15.4138 9.05106C15.2823 8.70285 15.1048 8.50082 14.8713 8.43307C14.6574 8.37082 14.4262 8.43185 14.1842 8.61389C14.1766 8.61969 14.1691 8.62595 14.1621 8.63235C13.4085 9.32541 12.1405 9.26636 11.3357 8.50067C11.2813 8.44879 11.2089 8.41995 11.1339 8.41995H8.86609C8.79102 8.41995 8.71869 8.44879 8.66422 8.50067C7.85886 9.26682 6.59101 9.32602 5.83799 8.63251C5.83081 8.62595 5.82334 8.61969 5.81556 8.61389C5.57325 8.43155 5.34177 8.37082 5.12738 8.43323C4.89362 8.50128 4.71646 8.70361 4.58585 9.05167L3.90821 10.8566C3.58884 11.7082 2.44321 12.0654 1.63236 11.8161C0.724308 11.5367 0.385716 10.625 0.703404 9.31442L2.11408 3.49121C2.3689 2.43973 2.9347 1.9339 3.4979 1.69861C3.52155 1.69235 3.54413 1.68335 3.56504 1.6716C3.90104 1.54373 4.23169 1.50818 4.49018 1.50742C4.92749 1.50681 5.30469 1.60065 5.58011 1.72089C5.58484 1.72302 5.58957 1.72531 5.59461 1.72729C5.84501 1.83884 6.00812 1.97174 6.05191 2.07321V2.9184C6.05191 3.57193 6.58368 4.1037 7.23722 4.1037H12.7624C13.4153 4.1037 13.9467 3.57193 13.9467 2.9184V2.07336C13.99 1.97311 14.1496 1.84204 14.3944 1.73126C14.4087 1.72607 14.4226 1.72028 14.4357 1.7131C14.7078 1.59698 15.075 1.50742 15.5005 1.50742H15.511C15.7692 1.50833 16.0995 1.54404 16.4351 1.67191C16.4557 1.68335 16.4779 1.6922 16.5013 1.69846C17.0646 1.93359 17.6307 2.43942 17.8856 3.49106L19.2962 9.31442C19.6141 10.6247 19.2756 11.5364 18.3679 11.8158Z" fill="#1A6545"/>
<path d="M12.9602 5.80225C12.1948 5.80225 11.5723 6.4248 11.5723 7.19019C11.5723 7.95557 12.1948 8.57812 12.9602 8.57812C13.7254 8.57812 14.3481 7.95541 14.3481 7.19019C14.3481 6.4248 13.7254 5.80225 12.9602 5.80225ZM12.9602 7.99249C12.5179 7.99249 12.1581 7.63254 12.1581 7.19019C12.1581 6.74783 12.5179 6.38803 12.9602 6.38803C13.4026 6.38803 13.7624 6.74783 13.7624 7.19019C13.7624 7.63254 13.4026 7.99249 12.9602 7.99249Z" fill="#1A6545"/>
<path d="M5.24493 3.91763H5.15582V3.82852C5.15582 3.33307 4.75269 2.92993 4.25723 2.92993C3.76178 2.92993 3.35864 3.33307 3.35864 3.82852V3.91763H3.26953C2.77408 3.91763 2.37109 4.32077 2.37109 4.81622C2.37109 5.31168 2.77408 5.71481 3.26953 5.71481H3.35864V5.80392C3.35864 6.29938 3.76178 6.70251 4.25723 6.70251C4.75269 6.70251 5.15582 6.29938 5.15582 5.80392V5.71481H5.24493C5.74039 5.71481 6.14352 5.31168 6.14352 4.81622C6.14352 4.32077 5.74039 3.91763 5.24493 3.91763ZM5.24493 5.12903H4.86301C4.70126 5.12903 4.57004 5.2601 4.57004 5.42184V5.80392C4.57004 5.97635 4.42981 6.11673 4.25723 6.11673C4.08481 6.11673 3.94458 5.97635 3.94458 5.80392V5.42184C3.94458 5.2601 3.81335 5.12903 3.65161 5.12903H3.26968C3.09726 5.12903 2.95688 4.98865 2.95688 4.81622C2.95688 4.6438 3.09726 4.50342 3.26968 4.50342H3.65161C3.81335 4.50342 3.94458 4.37219 3.94458 4.21045V3.82852C3.94458 3.65594 4.08481 3.51572 4.25723 3.51572C4.42981 3.51572 4.57004 3.65594 4.57004 3.82852V4.21045C4.57004 4.37219 4.70126 4.50342 4.86301 4.50342H5.24493C5.41736 4.50342 5.55774 4.6438 5.55774 4.81622C5.55774 4.98865 5.41751 5.12903 5.24493 5.12903Z" fill="#1A6545"/>
<path d="M9.23175 5.00171H8.80649C8.64474 5.00171 8.51367 5.13293 8.51367 5.29468C8.51367 5.45642 8.64474 5.58749 8.80649 5.58749H9.23175C9.39349 5.58749 9.52457 5.45642 9.52457 5.29468C9.52457 5.13293 9.39349 5.00171 9.23175 5.00171Z" fill="#1A6545"/>
<path d="M11.1939 5.00171H10.7676C10.6058 5.00171 10.4746 5.13293 10.4746 5.29468C10.4746 5.45642 10.6058 5.58749 10.7676 5.58749H11.1939C11.3557 5.58749 11.4867 5.45642 11.4867 5.29468C11.4867 5.13293 11.3557 5.00171 11.1939 5.00171Z" fill="#1A6545"/>
<path d="M10.3255 6.53638H9.90039C9.73865 6.53638 9.60742 6.66745 9.60742 6.82919C9.60742 6.99094 9.73865 7.12216 9.90039 7.12216H10.3255C10.4874 7.12216 10.6185 6.99094 10.6185 6.82919C10.6185 6.66745 10.4874 6.53638 10.3255 6.53638Z" fill="#1A6545"/>
</svg>
