<svg width="20" height="18" viewBox="0 0 20 18" fill="none" xmlns="http://www.w3.org/2000/svg">
<path d="M16.4826 7.14282V16.4605H12.9645V12.4307C12.9645 12.0774 12.6781 11.791 12.3248 11.791H7.8259C7.47258 11.791 7.18625 12.0774 7.18625 12.4307V16.4605H3.68945V7.14282H2.41016V17.1002C2.41016 17.4535 2.69652 17.7398 3.0498 17.7398H7.82594C8.17926 17.7398 8.46559 17.4534 8.46559 17.1002V13.0704H11.6852V17.1002C11.6852 17.4535 11.9716 17.7399 12.3248 17.7399H17.1223C17.4756 17.7399 17.762 17.4535 17.762 17.1002V7.14282H16.4826Z" fill="#3CB55E"/>
<path d="M19.7975 8.85067L10.5224 0.172663C10.2782 -0.0561265 9.89871 -0.0576109 9.65246 0.1686L0.206833 8.84665C-0.0532847 9.08567 -0.070355 9.49016 0.168668 9.75028C0.294684 9.88782 0.46695 9.95731 0.639879 9.95731C0.79445 9.95731 0.949684 9.90145 1.0725 9.78864L10.0814 1.51188L18.9234 9.78481C19.1819 10.0264 19.5861 10.0125 19.8275 9.75473C20.0687 9.49673 20.0554 9.09204 19.7975 8.85067Z" fill="#3CB55E"/>
</svg>
