<svg width="52" height="58" viewBox="0 0 52 58" fill="none" xmlns="http://www.w3.org/2000/svg">
<path d="M10.2441 35.6997C9.06512 36.6818 5.50388 39.9005 5.26228 43.1277C5.14414 44.7035 6.28908 46.1448 7.86718 46.2223C8.58991 46.2579 9.25135 46.0127 9.75883 45.5881C9.93944 45.4371 10.2124 45.5961 10.1822 45.8297V45.83C10.0893 46.5436 9.8669 47.2343 9.52552 47.868L9.16016 48.546C9.06986 48.7136 9.19125 48.9167 9.38163 48.9167H11.8583C12.0487 48.9167 12.1698 48.7136 12.0798 48.546L11.7144 47.868C11.3731 47.2343 11.1507 46.5436 11.0577 45.83V45.8297C11.0272 45.5961 11.3002 45.4371 11.4811 45.5881C11.9889 46.0127 12.65 46.2579 13.3728 46.2223C14.9512 46.1448 16.0958 44.7038 15.978 43.128C15.7364 39.9008 12.1751 36.6821 10.9961 35.6997C10.7776 35.5179 10.4623 35.5179 10.2441 35.6997Z" fill="#5CAD8B"/>
<path d="M5.24779 33.2071C5.99409 33.2071 6.59909 32.6021 6.59909 31.8558C6.59909 31.1095 5.99409 30.5045 5.24779 30.5045C4.50148 30.5045 3.89648 31.1095 3.89648 31.8558C3.89648 32.6021 4.50148 33.2071 5.24779 33.2071Z" fill="#5CAD8B"/>
<path d="M40.9081 41.1294C40.0403 41.9972 38.6336 41.9972 37.7661 41.1294C36.8983 40.2616 36.8983 38.8549 37.7661 37.9874C38.6339 37.1196 40.0406 37.1196 40.9081 37.9874C41.7756 38.8549 41.7756 40.2619 40.9081 41.1294Z" fill="#5CAD8B"/>
<path d="M50.2547 1.06889C49.7176 0.818703 49.1027 0.900126 48.6491 1.28118H48.6493L40.3266 8.2716V2.7065C40.3266 1.24121 39.1346 0.0491943 37.6693 0.0491943H3.54764C2.08264 0.0491943 0.890625 1.24121 0.890625 2.7065V22.1068C0.890625 23.5721 2.08234 24.7641 3.54764 24.7641H37.6693C39.1343 24.7641 40.3266 23.5721 40.3266 22.1068V16.542L48.6491 23.5324C49.1027 23.9132 49.7173 23.9949 50.255 23.7444C50.7915 23.4942 51.1252 22.9707 51.1252 22.3786V2.435C51.1252 1.84255 50.7915 1.31908 50.2547 1.06889ZM49.6448 22.3786L49.6012 22.3987L40.0625 14.3865C39.8419 14.2015 39.5343 14.1609 39.2737 14.2823C39.0129 14.404 38.8462 14.6654 38.8462 14.9532V22.1068C38.8462 22.7555 38.3183 23.2837 37.6693 23.2837H3.54764C2.89893 23.2837 2.37102 22.7558 2.37102 22.1068V2.7065C2.37102 2.05779 2.89863 1.52959 3.54764 1.52959H37.6693C38.318 1.52959 38.8462 2.0575 38.8462 2.7065V9.86007C38.8462 10.1479 39.0129 10.4093 39.2737 10.531C39.5343 10.6527 39.8419 10.6121 40.0622 10.4268L49.6012 2.41457C49.6015 2.41457 49.6448 2.4347 49.6448 2.4347V22.3786Z" fill="#5CAD8B"/>
<path d="M26.3772 45.3524H17.5573C16.7342 45.3524 16.0645 46.0219 16.0645 46.845V55.6651C16.0645 56.4882 16.7342 57.158 17.5573 57.158H26.3772C27.2 57.158 27.8697 56.4882 27.8697 55.6651V46.845C27.8697 46.0221 27.2 45.3524 26.3772 45.3524ZM26.3893 55.6651C26.3893 55.672 26.3837 55.6776 26.3772 55.6776L17.5448 55.6651L17.5573 46.8328L26.3893 46.845V55.6651Z" fill="#5CAD8B"/>
<path d="M20.0928 50.4801C20.6876 50.4801 21.1699 49.9978 21.1699 49.4029C21.1699 48.8081 20.6876 48.3258 20.0928 48.3258C19.4979 48.3258 19.0156 48.8081 19.0156 49.4029C19.0156 49.9978 19.4979 50.4801 20.0928 50.4801Z" fill="#5CAD8B"/>
<path d="M20.0928 54.1881C20.6876 54.1881 21.1699 53.7058 21.1699 53.1109C21.1699 52.5161 20.6876 52.0338 20.0928 52.0338C19.4979 52.0338 19.0156 52.5161 19.0156 53.1109C19.0156 53.7058 19.4979 54.1881 20.0928 54.1881Z" fill="#5CAD8B"/>
<path d="M23.8428 50.4801C24.4376 50.4801 24.9199 49.9978 24.9199 49.4029C24.9199 48.8081 24.4376 48.3258 23.8428 48.3258C23.2479 48.3258 22.7656 48.8081 22.7656 49.4029C22.7656 49.9978 23.2479 50.4801 23.8428 50.4801Z" fill="#5CAD8B"/>
<path d="M23.8428 54.1881C24.4376 54.1881 24.9199 53.7058 24.9199 53.1109C24.9199 52.5161 24.4376 52.0338 23.8428 52.0338C23.2479 52.0338 22.7656 52.5161 22.7656 53.1109C22.7656 53.7058 23.2479 54.1881 23.8428 54.1881Z" fill="#5CAD8B"/>
<path d="M12.0297 55.6773H2.88768C2.60285 55.6773 2.37102 55.4455 2.37102 55.1604V29.7669C2.37102 29.4818 2.60285 29.2499 2.88768 29.2499H18.3504C18.6355 29.2499 18.8674 29.4818 18.8674 29.7669V41.3978C18.8674 41.8066 19.1987 42.1379 19.6076 42.1379C20.0164 42.1379 20.3478 41.8066 20.3478 41.3978V29.7669C20.3478 28.6655 19.4518 27.7695 18.3504 27.7695H2.88768C1.78626 27.7695 0.890625 28.6655 0.890625 29.7669V55.1604C0.890625 56.2618 1.78626 57.1577 2.88768 57.1577H12.0297C12.4386 57.1577 12.7699 56.8264 12.7699 56.4175C12.7699 56.0087 12.4386 55.6773 12.0297 55.6773Z" fill="#5CAD8B"/>
<path d="M47.7158 31.2769C47.7007 31.2588 47.6882 31.2393 47.6711 31.2224C47.6542 31.2055 47.6346 31.1928 47.6166 31.178C45.486 29.0723 42.5604 27.7695 39.3356 27.7695C36.1116 27.7695 33.1866 29.0717 31.056 31.1762C31.0373 31.1916 31.0172 31.2046 30.9995 31.2224C30.9817 31.2402 30.9687 31.2603 30.9533 31.279C28.849 33.4092 27.5469 36.3342 27.5469 39.5579C27.5469 42.7816 28.8487 45.7066 30.9533 47.8369C30.9687 47.8558 30.982 47.876 30.9995 47.8934C31.0169 47.9109 31.0371 47.9242 31.056 47.9396C33.1863 50.0441 36.1113 51.3463 39.3356 51.3463C42.5604 51.3463 45.4863 50.0436 47.6166 47.9378C47.6346 47.9227 47.6542 47.9103 47.6711 47.8934C47.6879 47.8766 47.7007 47.857 47.7158 47.8389C49.8215 45.7084 51.1242 42.7828 51.1242 39.5576C51.1242 36.3324 49.8215 33.4075 47.7158 31.2769ZM47.1239 46.2999L45.0061 44.1821C45.8896 43.1005 46.4711 41.7628 46.6188 40.2987H49.6145C49.4511 42.5844 48.5401 44.6659 47.1239 46.2999ZM29.0572 40.2984H32.0529C32.2006 41.7625 32.7818 43.0999 33.6656 44.1815L31.5475 46.2996C30.1313 44.6659 29.2203 42.5844 29.0572 40.2984ZM31.5475 32.8168L33.6656 34.9349C32.7821 36.0165 32.2006 37.3542 32.0529 38.818H29.0572C29.2203 36.532 30.1313 34.4508 31.5475 32.8168ZM39.3359 45.3981C36.1157 45.3981 33.496 42.7784 33.496 39.5582C33.496 36.3381 36.1157 33.7183 39.3359 33.7183C42.556 33.7183 45.1757 36.3381 45.1757 39.5582C45.1757 42.7784 42.556 45.3981 39.3359 45.3981ZM43.9591 33.888C42.8775 33.0045 41.5399 32.423 40.0761 32.2753V29.2792C42.3621 29.4424 44.4432 30.3534 46.0773 31.7699L43.9591 33.888ZM38.5957 32.2753C37.1315 32.423 35.7939 33.0042 34.7123 33.888L32.5944 31.7702C34.2285 30.3537 36.3096 29.4427 38.5959 29.2795V32.2753H38.5957ZM34.712 45.2284C35.7936 46.1119 37.1312 46.6934 38.5954 46.8412V49.8372C36.3093 49.674 34.2279 48.763 32.5938 47.3466L34.712 45.2284ZM40.0761 46.8412C41.5402 46.6934 42.8775 46.1122 43.9591 45.2284L46.0773 47.3466C44.4432 48.7627 42.3621 49.6738 40.0761 49.8372V46.8412ZM46.6185 38.818C46.4708 37.3539 45.8896 36.0162 45.0058 34.9346L47.1236 32.8168C48.5398 34.4508 49.4511 36.532 49.6142 38.8183H46.6185V38.818Z" fill="#5CAD8B"/>
<path d="M12.6047 17.0423H9.26165V7.57369C9.26165 7.16481 8.93033 6.8335 8.52145 6.8335C8.11256 6.8335 7.78125 7.16481 7.78125 7.57369V17.7822C7.78125 18.1911 8.11256 18.5224 8.52145 18.5224H12.6047C13.0136 18.5224 13.3449 18.1911 13.3449 17.7822C13.3449 17.3733 13.0136 17.0423 12.6047 17.0423Z" fill="#5CAD8B"/>
<path d="M16.3339 6.8335C15.9251 6.8335 15.5938 7.16481 15.5938 7.57369V17.7822C15.5938 18.1911 15.9251 18.5224 16.3339 18.5224C16.7428 18.5224 17.0741 18.1911 17.0741 17.7822V7.57369C17.0741 7.16481 16.7428 6.8335 16.3339 6.8335Z" fill="#5CAD8B"/>
<path d="M24.3369 6.85144C23.9357 6.76084 23.542 7.0131 23.4528 7.41192L21.8884 14.3961L20.3239 7.41192C20.2345 7.0131 19.8407 6.76084 19.4398 6.85144C19.041 6.94086 18.7902 7.33672 18.8793 7.73554L21.1662 17.944C21.242 18.2822 21.5422 18.5226 21.8884 18.5226C22.2345 18.5226 22.535 18.2822 22.6105 17.944L24.8974 7.73554C24.9865 7.33642 24.7355 6.94056 24.3369 6.85144Z" fill="#5CAD8B"/>
<path d="M31.5246 8.31389C31.9335 8.31389 32.2648 7.98258 32.2648 7.57369C32.2648 7.16481 31.9335 6.8335 31.5246 6.8335H27.4414C27.0325 6.8335 26.7012 7.16481 26.7012 7.57369V17.7822C26.7012 18.1911 27.0325 18.5224 27.4414 18.5224H31.5246C31.9335 18.5224 32.2648 18.1911 32.2648 17.7822C32.2648 17.3733 31.9335 17.042 31.5246 17.042H28.1816V13.418H31.5246C31.9335 13.418 32.2648 13.0867 32.2648 12.6778C32.2648 12.2689 31.9335 11.9376 31.5246 11.9376H28.1816V8.3136H31.5246V8.31389Z" fill="#5CAD8B"/>
</svg>
