<svg width="29" height="36" viewBox="0 0 29 36" fill="none" xmlns="http://www.w3.org/2000/svg">
<path d="M0.825393 16.21C-0.208425 16.8761 -0.203973 18.3893 0.833746 19.0494L25.545 35.6757C26.9104 36.4111 28.8716 35.4117 28.867 33.8636L28.1493 1.69034C28.1454 0.358046 26.6705 -0.443353 25.5506 0.278246L0.825393 16.21Z" fill="#C4C4C4"/>
<path d="M0.825393 16.21C-0.208425 16.8761 -0.203973 18.3893 0.833746 19.0494L25.545 35.6757C26.9104 36.4111 28.8716 35.4117 28.867 33.8636L28.1493 1.69034C28.1454 0.358046 26.6705 -0.443353 25.5506 0.278246L0.825393 16.21Z" fill="url(#paint0_linear_624_3)"/>
<path d="M0.825393 16.21C-0.208425 16.8761 -0.203973 18.3893 0.833746 19.0494L25.545 35.6757C26.9104 36.4111 28.8716 35.4117 28.867 33.8636L28.1493 1.69034C28.1454 0.358046 26.6705 -0.443353 25.5506 0.278246L0.825393 16.21Z" fill="#E3B513"/>
<path d="M0.825392 16.2102C-0.208425 16.8763 -0.203973 18.3895 0.833746 19.0496L25.6522 34.8356C26.7763 35.5506 28.2466 34.7405 28.2426 33.4082L28.1493 1.69046C28.1454 0.358161 26.6705 -0.443239 25.5506 0.278361L0.825392 16.2102Z" fill="#C4C4C4"/>
<path d="M0.825392 16.2102C-0.208425 16.8763 -0.203973 18.3895 0.833746 19.0496L25.6522 34.8356C26.7763 35.5506 28.2466 34.7405 28.2426 33.4082L28.1493 1.69046C28.1454 0.358161 26.6705 -0.443239 25.5506 0.278361L0.825392 16.2102Z" fill="#FFCA10"/>
<path opacity="0.2" d="M0.825392 16.21C-0.208425 16.8761 -0.203973 18.3893 0.833746 19.0494L14.1385 27.5042C14.1385 27.5042 11.9582 26.2668 14.1946 17.4568C16.4311 8.64684 28.1493 1.69034 28.1493 1.69034C28.1454 0.35804 26.6705 -0.443357 25.5506 0.278242L0.825392 16.21Z" fill="#74611E"/>
<defs>
<linearGradient id="paint0_linear_624_3" x1="-4.61557" y1="17.6675" x2="28.1149" y2="17.5712" gradientUnits="userSpaceOnUse">
<stop stop-color="#C64AFF"/>
<stop offset="1" stop-color="#8830FF"/>
</linearGradient>
</defs>
</svg>
