<svg width="51" height="56" viewBox="0 0 51 56" fill="none" xmlns="http://www.w3.org/2000/svg">
<path d="M27.8791 12.7124C29.3479 13.5599 29.3479 14.9374 27.8879 15.7861C26.4279 16.6349 24.0579 16.6336 22.5904 15.7861C21.1229 14.9386 21.1066 13.5611 22.5654 12.7124C24.0241 11.8636 26.4104 11.8649 27.8791 12.7124Z" fill="#5CAD8B"/>
<path d="M18.7025 41.7424C19.9238 42.4474 20.91 44.1561 20.9063 45.5586C20.9025 46.9711 19.91 47.5361 18.6888 46.8311C17.46 46.1211 16.4738 44.4136 16.4775 43.0011C16.4813 41.5986 17.4738 41.0324 18.7038 41.7424H18.7025Z" fill="#5CAD8B"/>
<path d="M13.3686 32.3311C14.5898 33.0361 15.5761 34.7449 15.5723 36.1474C15.5686 37.5599 14.5761 38.1249 13.3548 37.4199C12.1261 36.7099 11.1398 35.0024 11.1436 33.5899C11.1473 32.1874 12.1398 31.6211 13.3698 32.3311H13.3686Z" fill="#5CAD8B"/>
<path d="M8.03458 22.92C9.25583 23.625 10.2421 25.3337 10.2383 26.7362C10.2346 28.1487 9.24208 28.7137 8.02083 28.0087C6.79208 27.2987 5.80583 25.5912 5.80958 24.1787C5.81333 22.7762 6.80583 22.21 8.03583 22.92H8.03458Z" fill="#5CAD8B"/>
<path d="M32.6488 29.7936C33.8775 29.0836 34.8713 29.6499 34.875 31.0624C34.8788 32.4649 33.8925 34.1736 32.6638 34.8836C31.4425 35.5886 30.4413 35.0274 30.4375 33.6249C30.4338 32.2124 31.4275 30.4999 32.6488 29.7949V29.7936Z" fill="#5CAD8B"/>
<path d="M41.516 24.675C42.7447 23.965 43.7372 24.5312 43.7422 25.9437C43.746 27.3462 42.7597 29.055 41.531 29.765C40.3097 30.47 39.3172 29.9037 39.3135 28.5012C39.3097 27.0887 40.296 25.38 41.5172 24.675H41.516Z" fill="#5CAD8B"/>
<path d="M32.679 39.9825C33.9078 39.2725 34.9015 39.8387 34.9053 41.2512C34.909 42.6537 33.9228 44.3625 32.694 45.0725C31.4728 45.7775 30.4715 45.2162 30.4678 43.8137C30.464 42.4012 31.4578 40.6887 32.679 39.9837V39.9825Z" fill="#5CAD8B"/>
<path d="M41.5453 34.8637C42.774 34.1537 43.7665 34.72 43.7715 36.1325C43.7753 37.535 42.789 39.2437 41.5603 39.9537C40.339 40.6587 39.3465 40.0925 39.3428 38.69C39.339 37.2775 40.3253 35.5687 41.5465 34.8637H41.5453Z" fill="#5CAD8B"/>
<path d="M47.1074 11.7612L28.3574 0.936182C26.4287 -0.176318 24.0337 -0.176318 22.1074 0.936182L3.35742 11.7624C1.42992 12.8762 0.232422 14.9499 0.232422 17.1749V38.8249C0.232422 41.0512 1.42992 43.1249 3.35742 44.2374L22.1074 55.0624C23.0712 55.6187 24.1524 55.8974 25.2324 55.8974C26.3124 55.8974 27.3937 55.6187 28.3574 55.0624L47.1074 44.2374C49.0349 43.1249 50.2324 41.0512 50.2324 38.8249V17.1749C50.2324 14.9499 49.0349 12.8762 47.1074 11.7612ZM23.3574 3.10243C23.9362 2.76868 24.5837 2.60118 25.2324 2.60118C25.8812 2.60118 26.5287 2.76868 27.1074 3.10243L45.8574 13.9274C46.0462 14.0362 46.2024 14.1824 46.3674 14.3199L25.2324 26.5199L4.09867 14.3199C4.26242 14.1824 4.41992 14.0362 4.60742 13.9274L23.3574 3.10243ZM4.60742 42.0724C3.44992 41.4049 2.73242 40.1612 2.73242 38.8249V17.1749C2.73242 16.9349 2.78117 16.7037 2.82617 16.4724L23.9824 28.6849V53.1562C23.7699 53.0812 23.5562 53.0124 23.3574 52.8987L4.60742 42.0737V42.0724ZM47.7324 38.8249C47.7324 40.1599 47.0149 41.4037 45.8574 42.0724L27.1074 52.8974C26.9087 53.0124 26.6949 53.0799 26.4824 53.1549V28.6849L47.6387 16.4724C47.6837 16.7037 47.7324 16.9349 47.7324 17.1749V38.8249Z" fill="#5CAD8B"/>
</svg>
