<svg width="50" height="58" viewBox="0 0 50 58" fill="none" xmlns="http://www.w3.org/2000/svg">
<path d="M41.6472 20.3225C41.5552 20.2378 41.4471 20.1723 41.3293 20.13C41.2116 20.0876 41.0866 20.0693 40.9617 20.076C40.8367 20.0827 40.7144 20.1144 40.6019 20.1691C40.4894 20.2239 40.389 20.3006 40.3066 20.3947L38.9688 21.9247C38.6337 18.7887 37.3679 15.8247 35.3341 13.4141C31.2569 8.5888 25.8044 1.32317 25.75 1.25004C25.6676 1.14015 25.562 1.04971 25.4407 0.985137C25.3194 0.920562 25.1855 0.883429 25.0483 0.876363C24.9111 0.869297 24.774 0.892472 24.6467 0.944248C24.5195 0.996023 24.4052 1.07513 24.3119 1.17598C24.2969 1.19192 22.7791 2.83536 20.5619 5.35067C18.9503 7.17165 17.92 9.43284 17.6031 11.8438L16.8972 11.1379C16.8047 11.0472 16.6948 10.9762 16.5741 10.9291C16.4534 10.8821 16.3245 10.86 16.195 10.8641C16.0656 10.8696 15.9387 10.9018 15.8224 10.9588C15.706 11.0157 15.6028 11.0962 15.5191 11.195C12.2903 15.0172 9.36437 18.7119 7.05625 21.8825C5.62193 23.8546 4.60735 26.0999 4.07522 28.4797C3.54309 30.8594 3.50473 33.323 3.9625 35.7182L2.01906 34.7422C1.88283 34.6741 1.73204 34.6401 1.57975 34.6433C1.42745 34.6466 1.27823 34.6869 1.14501 34.7607C1.01178 34.8346 0.898557 34.9398 0.815138 35.0672C0.731719 35.1947 0.680616 35.3406 0.66625 35.4922C0.635313 35.8344 0.625 36.1719 0.625 36.5C0.625 49.0288 10.1931 57.125 25 57.125C39.8069 57.125 49.375 49.0288 49.375 36.5C49.375 31.1563 46.1969 24.5 41.6472 20.3225ZM9.97188 43.7722C9.115 40.3419 12.1216 34.5547 14.7353 30.1654L17.8694 32.5625C18.026 32.6817 18.2162 32.7484 18.4129 32.7535C18.6096 32.7585 18.803 32.7015 18.9655 32.5905C19.128 32.4795 19.2515 32.3202 19.3184 32.1352C19.3853 31.9501 19.3924 31.7487 19.3384 31.5594L18.4159 28.3419C17.6922 25.0804 18.7778 23.661 20.2825 21.6969C20.5094 21.4007 20.7409 21.0988 20.9697 20.7838C22.69 18.4232 24.1806 16.521 25.015 15.4775C27.9661 19.0353 30.7257 22.7478 33.2819 26.5991C35.0259 29.2794 35.8034 32.4744 35.4859 35.6563L35.3172 37.3438C35.3 37.5167 35.3311 37.691 35.4072 37.8472C35.4832 38.0034 35.6012 38.1354 35.748 38.2285C35.8947 38.3215 36.0644 38.372 36.2381 38.3742C36.4119 38.3764 36.5828 38.3303 36.7319 38.241L38.8787 36.9557C39.9794 39.8 40.3619 42.1044 40.0187 43.8154C38.5713 51.0575 34.3487 54.7025 26.8 55.1882C26.2056 55.2172 23.8094 55.2182 23.2225 55.1882C15.8472 54.725 11.8375 51.2366 9.97188 43.7722ZM38.0537 52.3541C40.0422 50.0296 41.3572 47.2055 41.8563 44.1875C42.3156 41.9029 41.7569 38.8879 40.1969 35.226C40.1444 35.1027 40.0661 34.9922 39.9673 34.9018C39.8685 34.8113 39.7515 34.7431 39.6241 34.7017C39.4967 34.6603 39.3619 34.6467 39.2288 34.6618C39.0957 34.6768 38.9674 34.7203 38.8525 34.7891L37.3666 35.6788C37.6851 32.1219 36.7986 28.5611 34.8494 25.5688C32.0408 21.3359 28.9891 17.2693 25.7097 13.3897C25.6226 13.2839 25.5124 13.1993 25.3876 13.1426C25.2628 13.0859 25.1267 13.0585 24.9897 13.0625C24.8533 13.064 24.7189 13.0953 24.5959 13.154C24.4728 13.2128 24.364 13.2977 24.2772 13.4029C24.2566 13.4282 22.1256 16.01 19.4538 19.6757C19.2344 19.9775 19.0113 20.2672 18.7975 20.5522C17.2628 22.5566 15.6766 24.6285 16.6028 28.8022L16.7603 29.3535L15.0437 28.041C14.9392 27.9613 14.8191 27.9045 14.6912 27.8742C14.5633 27.8439 14.4304 27.8409 14.3013 27.8653C14.1721 27.8897 14.0495 27.941 13.9415 28.0158C13.8334 28.0907 13.7423 28.1874 13.6741 28.2997C10.3459 33.7766 7.08813 39.9529 8.15688 44.2297C8.81814 47.3264 10.2718 50.1985 12.3756 52.565C9.43262 51.1851 6.94249 48.997 5.19549 46.2559C3.44849 43.5148 2.51659 40.3336 2.50844 37.0832L4.89344 38.2813C5.05279 38.361 5.23156 38.3937 5.40882 38.3755C5.58607 38.3573 5.75446 38.2889 5.89426 38.1784C6.03406 38.068 6.13948 37.9199 6.19817 37.7517C6.25686 37.5834 6.26638 37.4019 6.22563 37.2285L5.94438 36.0266C5.41827 33.7915 5.38095 31.4693 5.83497 29.2184C6.28898 26.9676 7.22362 24.8414 8.575 22.985C10.6984 20.0675 13.3562 16.6954 16.2953 13.1872L17.7756 14.6675C17.9071 14.7986 18.0744 14.8877 18.2566 14.9235C18.4387 14.9593 18.6273 14.9403 18.7986 14.8688C18.9699 14.7973 19.1161 14.6766 19.2187 14.5219C19.3213 14.3673 19.3757 14.1856 19.375 14V13.4254C19.3755 10.9085 20.2965 8.4787 21.9644 6.5938C23.2375 5.15004 24.2772 3.99692 24.9316 3.27692C26.5328 5.39004 30.6503 10.7713 33.9034 14.6254C36.0311 17.1529 37.1946 20.3524 37.1875 23.6563V24.3125C37.1873 24.5034 37.2454 24.6898 37.354 24.8468C37.4625 25.0037 37.6164 25.1238 37.7951 25.191C37.9738 25.2582 38.1687 25.2692 38.3538 25.2226C38.5389 25.176 38.7053 25.0741 38.8309 24.9304L41.0706 22.37C44.89 26.2325 47.5 31.9119 47.5 36.5C47.5979 39.7677 46.761 42.9955 45.0876 45.8039C43.4143 48.6123 40.9741 50.8847 38.0537 52.3541Z" fill="#0F5638"/>
</svg>
