<svg width="48" height="48" viewBox="0 0 48 48" fill="none" xmlns="http://www.w3.org/2000/svg">
<path d="M20.5766 38.5971C20.5019 38.5971 20.4277 38.5848 20.357 38.5607C17.6446 37.6973 15.1787 36.1963 13.1659 34.1835C11.1531 32.1707 9.65211 29.7048 8.78873 26.9924C8.75396 26.8914 8.74371 26.7837 8.75855 26.678C8.77349 26.5723 8.81324 26.4717 8.87457 26.3843L18.9218 12.0478C25.3408 3.71738 35.688 -0.741403 46.6246 0.101164C46.7854 0.11343 46.9366 0.182844 47.0507 0.296848C47.1648 0.410861 47.2344 0.561945 47.2468 0.722785C48.0874 11.6579 43.6306 22.0066 35.3246 28.4079L35.3003 28.4262L20.9637 38.4721C20.8507 38.5528 20.7155 38.5965 20.5766 38.5971ZM10.1806 26.8762C10.9913 29.2666 12.3414 31.4384 14.1261 33.2232C15.911 35.008 18.0828 36.3581 20.4732 37.1688L34.5118 27.3295C42.3002 21.3214 46.5455 11.6681 45.9394 1.41063C35.6692 0.802512 26.0178 5.05319 20.0104 12.8498L10.1806 26.8762Z" fill="#5CAD8B"/>
<path d="M44.9779 14.4126C44.9351 14.4128 44.8924 14.4089 44.8503 14.4012C41.902 13.8394 39.192 12.4011 37.0746 10.2741C34.9476 8.15669 33.5092 5.44664 32.9475 2.49844C32.9139 2.32238 32.9516 2.14018 33.0524 1.99193C33.1531 1.84367 33.3087 1.74151 33.4847 1.70791C33.6608 1.6743 33.8429 1.71203 33.9912 1.81276C34.1395 1.9135 34.2417 2.069 34.2753 2.24507C34.7863 4.92714 36.0949 7.39252 38.03 9.31875C39.9562 11.2538 42.4216 12.5624 45.1036 13.0734C45.2685 13.1052 45.4157 13.1972 45.5165 13.3315C45.6173 13.4658 45.6644 13.6329 45.6487 13.8001C45.6331 13.9673 45.5556 14.1227 45.4316 14.2359C45.3076 14.3491 45.1459 14.4122 44.9779 14.4126Z" fill="#5CAD8B"/>
<path d="M29.5422 23.0978C28.3181 23.0971 27.1321 22.672 26.1862 21.895C25.2404 21.1178 24.5932 20.0369 24.355 18.8361C24.1169 17.6354 24.3024 16.3892 24.88 15.3099C25.4576 14.2306 26.3916 13.385 27.5228 12.9171C28.654 12.4493 29.9124 12.388 31.0836 12.744C32.2549 13.0999 33.2665 13.851 33.946 14.8692C34.6256 15.8874 34.9312 17.1096 34.8106 18.3278C34.69 19.5459 34.1508 20.6847 33.2848 21.5499C32.7936 22.0416 32.2102 22.4315 31.5679 22.6972C30.9256 22.9628 30.2373 23.099 29.5422 23.0978ZM29.5422 13.8647C28.63 13.8646 27.746 14.1807 27.0409 14.7593C26.3357 15.3378 25.853 16.143 25.6749 17.0376C25.4968 17.9323 25.6344 18.861 26.0644 19.6655C26.4943 20.47 27.1899 21.1005 28.0326 21.4497C28.8752 21.7988 29.8129 21.8449 30.6859 21.5801C31.5587 21.3154 32.3128 20.7562 32.8197 19.9978C33.3264 19.2393 33.5545 18.3287 33.4652 17.4208C33.3758 16.5131 32.9744 15.6644 32.3294 15.0195C31.9641 14.6524 31.5297 14.3614 31.0514 14.1631C30.573 13.9649 30.06 13.8635 29.5422 13.8647Z" fill="#5CAD8B"/>
<path d="M25.8948 47.2978H25.8541C25.7455 47.2913 25.6401 47.2585 25.5467 47.2024C25.4535 47.1462 25.3751 47.0684 25.3184 46.9755L20.0015 38.2755C19.908 38.1226 19.8791 37.9388 19.9212 37.7645C19.9633 37.5903 20.0729 37.4399 20.2258 37.3464C20.3787 37.253 20.5625 37.2242 20.7368 37.2663C20.9111 37.3082 21.0614 37.4178 21.1548 37.5708L25.965 45.4417L29.6062 40.8302C30.4089 39.8082 31.0005 38.6367 31.3467 37.3839C31.6928 36.1312 31.7866 34.8222 31.6224 33.533L31.1779 30.114C31.1648 30.0253 31.1695 29.9348 31.1917 29.848C31.214 29.7611 31.2533 29.6794 31.3074 29.608C31.3615 29.5364 31.4293 29.4763 31.5069 29.4313C31.5844 29.3863 31.6702 29.3571 31.7591 29.3455C31.8481 29.3339 31.9384 29.3402 32.0249 29.3639C32.1115 29.3876 32.1923 29.4283 32.2629 29.4836C32.3335 29.5389 32.3924 29.6078 32.4362 29.6861C32.4799 29.7644 32.5077 29.8506 32.5177 29.9397L32.9623 33.3593C33.1494 34.8277 33.0426 36.3187 32.6483 37.7455C32.2538 39.1722 31.5797 40.5063 30.665 41.6702L26.4224 47.0438C26.3591 47.123 26.2788 47.187 26.1875 47.2309C26.0962 47.2749 25.9961 47.2978 25.8948 47.2978Z" fill="#5CAD8B"/>
<path d="M9.42495 27.4471C9.30073 27.4472 9.17895 27.4131 9.0729 27.3484L0.374254 22.0315C0.281403 21.9748 0.203629 21.8966 0.147526 21.8033C0.0914321 21.7102 0.0586684 21.6047 0.0520376 21.4961C0.0454067 21.3875 0.0650942 21.2789 0.10943 21.1796C0.153766 21.0803 0.221432 20.9931 0.306686 20.9255L5.68034 16.6829C6.8443 15.7685 8.17841 15.0944 9.60512 14.7C11.0319 14.3057 12.5228 14.1987 13.9912 14.3856L17.4108 14.8302C17.4998 14.8402 17.5861 14.868 17.6644 14.9117C17.7427 14.9555 17.8116 15.0144 17.8668 15.085C17.9221 15.1556 17.9628 15.2365 17.9866 15.3229C18.0103 15.4095 18.0166 15.4998 18.0049 15.5888C17.9934 15.6777 17.9642 15.7635 17.9192 15.841C17.8741 15.9186 17.814 15.9864 17.7425 16.0405C17.6709 16.0946 17.5894 16.134 17.5025 16.1562C17.4156 16.1784 17.3251 16.1831 17.2364 16.1701L13.8175 15.7255C12.5283 15.5615 11.2193 15.6554 9.96655 16.0015C8.71391 16.3477 7.54242 16.9392 6.5202 17.7417L1.90669 21.385L9.77758 26.1951C9.90327 26.272 10.0003 26.3877 10.054 26.5248C10.1079 26.6619 10.1153 26.8129 10.0753 26.9546C10.0354 27.0964 9.95024 27.2212 9.83286 27.3102C9.71548 27.399 9.57221 27.4471 9.42495 27.4471Z" fill="#5CAD8B"/>
<path d="M8.96072 47.3491C8.82703 47.3491 8.69646 47.3095 8.58542 47.2353C8.47429 47.161 8.38771 47.0555 8.33658 46.9321C8.28545 46.8086 8.27207 46.6728 8.29813 46.5417C8.32419 46.4107 8.38852 46.2903 8.48298 46.1957L14.5175 40.1614C14.5798 40.0968 14.6544 40.0453 14.7368 40.0099C14.8192 39.9744 14.9079 39.9559 14.9975 39.9551C15.0873 39.9543 15.1762 39.9714 15.2593 40.0054C15.3424 40.0393 15.4177 40.0895 15.4812 40.153C15.5447 40.2163 15.5948 40.2918 15.6288 40.3748C15.6628 40.4579 15.6799 40.5469 15.6791 40.6365C15.6783 40.7263 15.6596 40.815 15.6243 40.8974C15.5888 40.9798 15.5374 41.0544 15.4728 41.1167L9.43835 47.1512C9.31169 47.2779 9.13992 47.3491 8.96072 47.3491Z" fill="#5CAD8B"/>
<path d="M0.675536 39.064C0.541913 39.064 0.411307 39.0243 0.300223 38.9501C0.189139 38.8758 0.102557 38.7703 0.0514244 38.6469C0.0003013 38.5235 -0.0130873 38.3876 0.0129771 38.2566C0.0390318 38.1255 0.103368 38.0051 0.197831 37.9107L6.23228 31.8762C6.29462 31.8116 6.36918 31.7602 6.45161 31.7247C6.53404 31.6894 6.6227 31.6707 6.71242 31.6699C6.80214 31.6692 6.89111 31.6863 6.97415 31.7202C7.05719 31.7542 7.13263 31.8043 7.19607 31.8678C7.25951 31.9313 7.30968 32.0067 7.34365 32.0897C7.37762 32.1728 7.39472 32.2617 7.39394 32.3515C7.39316 32.4411 7.37452 32.5298 7.33911 32.6122C7.3037 32.6947 7.25222 32.7693 7.18769 32.8316L1.15323 38.866C1.02655 38.9928 0.854715 39.064 0.675536 39.064Z" fill="#5CAD8B"/>
<path d="M1.08568 46.9397C0.952071 46.9397 0.821465 46.9 0.710382 46.8258C0.599288 46.7515 0.512706 46.646 0.461583 46.5226C0.41045 46.3991 0.397071 46.2633 0.423136 46.1323C0.44919 46.0012 0.513516 45.8808 0.607989 45.7864L7.10258 39.2917C7.23001 39.1687 7.40069 39.1005 7.57785 39.1021C7.75501 39.1036 7.92448 39.1746 8.04976 39.2999C8.17503 39.4252 8.24609 39.5947 8.24763 39.7718C8.24917 39.949 8.18107 40.1197 8.05799 40.2471L1.56339 46.7417C1.43671 46.8685 1.26487 46.9397 1.08568 46.9397Z" fill="#5CAD8B"/>
</svg>
