<svg width="29" height="36" viewBox="0 0 29 36" fill="none" xmlns="http://www.w3.org/2000/svg">
<path d="M28.1756 19.7903C29.2094 19.1242 29.205 17.611 28.1672 16.9509L3.456 0.324676C2.0906 -0.410729 0.129395 0.58864 0.133995 2.13679L0.851696 34.31C0.855597 35.6423 2.3305 36.4437 3.4504 35.7221L28.1756 19.7903Z" fill="#C4C4C4"/>
<path d="M28.1756 19.7903C29.2094 19.1242 29.205 17.611 28.1672 16.9509L3.456 0.324676C2.0906 -0.410729 0.129395 0.58864 0.133995 2.13679L0.851696 34.31C0.855597 35.6423 2.3305 36.4437 3.4504 35.7221L28.1756 19.7903Z" fill="url(#paint0_linear_624_2)"/>
<path d="M28.1756 19.7903C29.2094 19.1242 29.205 17.611 28.1672 16.9509L3.456 0.324676C2.0906 -0.410729 0.129395 0.58864 0.133995 2.13679L0.851696 34.31C0.855597 35.6423 2.3305 36.4437 3.4504 35.7221L28.1756 19.7903Z" fill="#E6B60D"/>
<path d="M28.1756 19.7902C29.2094 19.1241 29.205 17.6109 28.1672 16.9508L3.34879 1.16479C2.2247 0.449777 0.754396 1.25988 0.758396 2.59213L0.851696 34.3099C0.855597 35.6422 2.3305 36.4436 3.4504 35.722L28.1756 19.7902Z" fill="#C4C4C4"/>
<path d="M28.1756 19.7902C29.2094 19.1241 29.205 17.6109 28.1672 16.9508L3.34879 1.16479C2.2247 0.449777 0.754396 1.25988 0.758396 2.59213L0.851696 34.3099C0.855597 35.6422 2.3305 36.4436 3.4504 35.722L28.1756 19.7902Z" fill="url(#paint1_linear_624_2)"/>
<path d="M28.1756 19.7902C29.2094 19.1241 29.205 17.6109 28.1672 16.9508L3.34879 1.16479C2.2247 0.449777 0.754396 1.25988 0.758396 2.59213L0.851696 34.3099C0.855597 35.6422 2.3305 36.4436 3.4504 35.722L28.1756 19.7902Z" fill="url(#paint2_linear_624_2)"/>
<path d="M28.1756 19.7902C29.2094 19.1241 29.205 17.6109 28.1672 16.9508L3.34879 1.16479C2.2247 0.449777 0.754396 1.25988 0.758396 2.59213L0.851696 34.3099C0.855597 35.6422 2.3305 36.4436 3.4504 35.722L28.1756 19.7902Z" fill="#FFCA10"/>
<path opacity="0.2" d="M28.1756 19.7903C29.2094 19.1242 29.205 17.611 28.1672 16.9509L14.8625 8.49622C14.8625 8.49622 17.0428 9.73361 14.8064 18.5435C12.5699 27.3535 0.851696 34.31 0.851696 34.31C0.855597 35.6423 2.3305 36.4437 3.4504 35.7221L28.1756 19.7903Z" fill="#846700"/>
<defs>
<linearGradient id="paint0_linear_624_2" x1="33.6165" y1="18.3328" x2="0.886096" y2="18.4291" gradientUnits="userSpaceOnUse">
<stop stop-color="#C64AFF"/>
<stop offset="1" stop-color="#8830FF"/>
</linearGradient>
<linearGradient id="paint1_linear_624_2" x1="33.6165" y1="18.3328" x2="0.886096" y2="18.429" gradientUnits="userSpaceOnUse">
<stop stop-color="#C64AFF"/>
<stop offset="1" stop-color="#8830FF"/>
</linearGradient>
<linearGradient id="paint2_linear_624_2" x1="28.9482" y1="6.16289" x2="-0.909462" y2="8.608" gradientUnits="userSpaceOnUse">
<stop stop-color="#9BE15D"/>
<stop offset="0.963542" stop-color="#15A805"/>
</linearGradient>
</defs>
</svg>
