<svg width="24" height="24" viewBox="0 0 24 24" fill="none" xmlns="http://www.w3.org/2000/svg">
<path d="M23.7565 22.5812L17.2758 16.1005C17.2757 16.1004 17.2757 16.1003 17.2756 16.1002C17.2756 16.1001 17.2755 16.1 17.2755 16.0998C17.2755 16.0997 17.2756 16.0996 17.2756 16.0995C17.2757 16.0994 17.2757 16.0993 17.2758 16.0992C18.663 14.4631 19.4691 12.4135 19.5681 10.2708C19.847 4.46553 15.2274 -0.207398 9.41945 0.00723116C6.95295 0.100604 4.61276 1.12223 2.86743 2.86756C1.12211 4.61288 0.100479 6.95307 0.00710594 9.41957C-0.207476 15.2276 4.4655 19.8472 10.2707 19.5681C12.4134 19.4691 14.4629 18.663 16.0989 17.2758C16.0991 17.2757 16.0993 17.2756 16.0996 17.2756C16.0998 17.2756 16.1001 17.2757 16.1003 17.2758L22.5811 23.7566C22.7374 23.9105 22.9482 23.9964 23.1675 23.9956C23.3868 23.9947 23.5969 23.9072 23.752 23.7521C23.9071 23.597 23.9946 23.3869 23.9954 23.1676C23.9963 22.9483 23.9104 22.7375 23.7565 22.5812ZM1.87356 11.6756C1.23556 8.82759 2.06895 6.01685 4.04289 4.04296C6.01682 2.06908 8.82747 1.23564 11.6755 1.87368C14.3701 2.47753 17.1022 5.20939 17.7061 7.90368C18.3445 10.752 17.511 13.563 15.537 15.5371C13.5629 17.5112 10.7517 18.3446 7.90341 17.7061C5.20912 17.1022 2.47741 14.3699 1.87356 11.6756Z" fill="#3CB55E"/>
</svg>
