<svg width="19" height="19" viewBox="0 0 19 19" fill="none" xmlns="http://www.w3.org/2000/svg">
<path d="M0.833153 9.16664C0.832928 7.60173 1.27341 6.0684 2.10417 4.74222C2.93493 3.41604 4.12238 2.35062 5.53053 1.66797C6.93869 0.985317 8.51063 0.713029 10.0664 0.882285C11.6221 1.05154 13.0987 1.6555 14.3271 2.625H13.0595C12.9497 2.62606 12.8447 2.67043 12.7675 2.74845C12.6902 2.82647 12.6468 2.93185 12.6468 3.04166C12.6468 3.15147 12.6902 3.25684 12.7675 3.33486C12.8447 3.41289 12.9497 3.45725 13.0595 3.45832H15.4165C15.527 3.45832 15.633 3.41442 15.7111 3.33627C15.7893 3.25813 15.8332 3.15215 15.8332 3.04164V0.684567C15.8337 0.629511 15.8233 0.574895 15.8026 0.523876C15.7819 0.472857 15.7513 0.426446 15.7126 0.387325C15.6738 0.348205 15.6277 0.317151 15.5769 0.295958C15.5261 0.274765 15.4716 0.263853 15.4165 0.263853C15.3614 0.263853 15.3069 0.274765 15.2561 0.295958C15.2053 0.317151 15.1592 0.348205 15.1204 0.387325C15.0817 0.426446 15.0511 0.472857 15.0304 0.523876C15.0097 0.574895 14.9993 0.629511 14.9998 0.684567V2.0955C13.183 0.596727 10.8589 -0.145206 8.50971 0.0235867C6.16049 0.192379 3.96639 1.25894 2.38246 3.00207C0.798533 4.74519 -0.0536635 7.03111 0.00262054 9.38571C0.0589046 11.7403 1.01935 13.9829 2.68475 15.6484C2.72328 15.6878 2.76924 15.7192 2.81998 15.7407C2.87072 15.7622 2.92522 15.7735 2.98034 15.7738C3.03546 15.7741 3.09009 15.7635 3.14107 15.7425C3.19205 15.7216 3.23838 15.6907 3.27735 15.6518C3.31632 15.6128 3.34718 15.5665 3.36812 15.5155C3.38907 15.4645 3.39969 15.4099 3.39937 15.3548C3.39906 15.2996 3.38781 15.2451 3.36627 15.1944C3.34474 15.1437 3.31336 15.0977 3.27393 15.0592C2.49769 14.2872 1.88228 13.3688 1.46332 12.3574C1.04436 11.3459 0.830171 10.2614 0.833153 9.16664Z" fill="#1A6545"/>
<path d="M5.52437 16.6648C5.28796 16.5499 5.05398 16.4219 4.82905 16.2848C4.73474 16.2272 4.62141 16.2095 4.514 16.2354C4.4066 16.2614 4.31391 16.329 4.25634 16.4233C4.19876 16.5176 4.18101 16.631 4.20699 16.7384C4.23297 16.8458 4.30056 16.9385 4.39487 16.996C4.64249 17.1472 4.90003 17.2878 5.16026 17.4143C5.20948 17.4382 5.26292 17.4522 5.31753 17.4555C5.37215 17.4587 5.42688 17.4512 5.47858 17.4333C5.53029 17.4154 5.57797 17.3875 5.61889 17.3512C5.65982 17.3149 5.69319 17.2709 5.7171 17.2217C5.74101 17.1724 5.755 17.119 5.75826 17.0644C5.76152 17.0098 5.75399 16.955 5.7361 16.9033C5.71821 16.8516 5.69031 16.804 5.65399 16.763C5.61768 16.7221 5.57366 16.6887 5.52444 16.6648H5.52437Z" fill="#1A6545"/>
<path d="M16.6684 5.53255C16.6922 5.5818 16.7255 5.62586 16.7664 5.66223C16.8073 5.6986 16.8549 5.72656 16.9066 5.74452C16.9583 5.76247 17.013 5.77007 17.0677 5.76688C17.1223 5.76369 17.1758 5.74977 17.225 5.72591C17.2742 5.70206 17.3183 5.66874 17.3547 5.62786C17.391 5.58697 17.419 5.53933 17.437 5.48764C17.4549 5.43595 17.4625 5.38123 17.4593 5.3266C17.4561 5.27198 17.4422 5.21852 17.4184 5.16927C17.2928 4.90986 17.1525 4.65232 17.0013 4.40365C16.9728 4.35689 16.9355 4.3162 16.8913 4.28388C16.8471 4.25157 16.797 4.22828 16.7439 4.21533C16.6365 4.18917 16.5231 4.20675 16.4287 4.26419C16.3342 4.32163 16.2665 4.41423 16.2404 4.52162C16.2142 4.62901 16.2318 4.74238 16.2892 4.83681C16.4266 5.06287 16.5542 5.29697 16.6684 5.53255Z" fill="#1A6545"/>
<path d="M10.1548 17.4416C9.89176 17.4728 9.62563 17.4914 9.3636 17.4977C9.2551 17.5019 9.15251 17.5482 9.07767 17.6269C9.00283 17.7056 8.96166 17.8104 8.96292 17.9189C8.96418 18.0275 9.00778 18.1313 9.08443 18.2082C9.16108 18.2851 9.26472 18.329 9.37329 18.3307C9.37653 18.3307 9.38 18.3307 9.38325 18.3305C9.67133 18.3238 9.96368 18.3031 10.2526 18.269C10.3622 18.256 10.4622 18.1999 10.5306 18.1132C10.5989 18.0264 10.63 17.9161 10.6171 17.8065C10.6042 17.6968 10.5482 17.5967 10.4616 17.5283C10.3749 17.4598 10.2646 17.4286 10.1549 17.4414L10.1548 17.4416Z" fill="#1A6545"/>
<path d="M7.7833 17.385C7.52412 17.3417 7.26349 17.2853 7.00876 17.217C6.90198 17.1885 6.78823 17.2035 6.69254 17.2588C6.59685 17.3142 6.52705 17.4052 6.49851 17.512C6.46997 17.6188 6.48502 17.7326 6.54034 17.8283C6.59567 17.924 6.68674 17.9937 6.79353 18.0223C7.07388 18.0972 7.36076 18.1592 7.64619 18.2068C7.70016 18.2158 7.75537 18.2141 7.80868 18.2018C7.86199 18.1894 7.91234 18.1667 7.95687 18.1349C8.0014 18.1031 8.03923 18.0629 8.0682 18.0165C8.09717 17.97 8.11671 17.9184 8.12572 17.8644C8.13472 17.8104 8.133 17.7552 8.12067 17.7019C8.10833 17.6486 8.08562 17.5982 8.05382 17.5537C8.02202 17.5092 7.98177 17.4714 7.93535 17.4424C7.88893 17.4134 7.83727 17.3939 7.7833 17.3849V17.385Z" fill="#1A6545"/>
<path d="M17.9244 8.9657C17.814 8.96301 17.707 9.0043 17.6269 9.08047C17.5469 9.15665 17.5004 9.26149 17.4976 9.37195C17.4909 9.63543 17.4718 9.90152 17.4404 10.1632C17.4274 10.2729 17.4584 10.3833 17.5267 10.4702C17.5951 10.5571 17.6951 10.6132 17.8048 10.6264C17.8214 10.6283 17.8381 10.6292 17.8548 10.6293C17.9567 10.6291 18.0549 10.5917 18.1311 10.524C18.2072 10.4564 18.2559 10.3632 18.268 10.2621C18.3022 9.97461 18.3234 9.68222 18.3305 9.39273C18.3319 9.33802 18.3225 9.28358 18.3029 9.2325C18.2832 9.18143 18.2537 9.13473 18.216 9.09507C18.1783 9.05542 18.1331 9.02358 18.0831 9.00138C18.0331 8.97918 17.9792 8.96706 17.9244 8.9657Z" fill="#1A6545"/>
<path d="M16.6445 13.7316C16.5531 13.6697 16.4408 13.6465 16.3323 13.6672C16.2238 13.6879 16.1279 13.7508 16.0657 13.8421C15.9176 14.06 15.7575 14.2734 15.5894 14.4763C15.5537 14.5183 15.5267 14.567 15.5099 14.6195C15.4932 14.6721 15.487 14.7275 15.4918 14.7824C15.4966 14.8374 15.5123 14.8908 15.5379 14.9396C15.5636 14.9885 15.5987 15.0317 15.6411 15.0669C15.6836 15.1021 15.7327 15.1285 15.7855 15.1446C15.8382 15.1606 15.8937 15.1661 15.9485 15.1605C16.0034 15.155 16.0567 15.1386 16.1052 15.1124C16.1537 15.0861 16.1965 15.0504 16.2311 15.0075C16.4158 14.7845 16.5922 14.5499 16.755 14.3103C16.7857 14.265 16.8072 14.2142 16.8183 14.1606C16.8294 14.107 16.8299 14.0518 16.8196 13.9981C16.8093 13.9444 16.7886 13.8932 16.7586 13.8475C16.7285 13.8017 16.6898 13.7624 16.6445 13.7316Z" fill="#1A6545"/>
<path d="M17.219 7.01694C17.2866 7.27065 17.3427 7.53128 17.3861 7.79167C17.4022 7.88894 17.4523 7.97733 17.5275 8.04114C17.6027 8.10495 17.698 8.14004 17.7966 8.14018C17.8196 8.14014 17.8425 8.13823 17.8652 8.13448C17.9192 8.12553 17.9709 8.10603 18.0173 8.07709C18.0638 8.04815 18.104 8.01035 18.1359 7.96583C18.1677 7.92132 18.1905 7.87097 18.2028 7.81766C18.2152 7.76435 18.217 7.70913 18.208 7.65514C18.1606 7.3687 18.0986 7.08171 18.0244 6.80249C17.9959 6.6957 17.9263 6.60459 17.8306 6.54919C17.735 6.49379 17.6213 6.47864 17.5145 6.50708C17.4077 6.53551 17.3166 6.60521 17.2612 6.70083C17.2058 6.79644 17.1907 6.91015 17.2191 7.01694H17.219Z" fill="#1A6545"/>
<path d="M14.4693 15.5959C14.2657 15.7644 14.0523 15.9244 13.8352 16.0715C13.7899 16.1022 13.7511 16.1416 13.721 16.1873C13.6909 16.233 13.6701 16.2841 13.6598 16.3379C13.6495 16.3916 13.6499 16.4468 13.6609 16.5004C13.6719 16.554 13.6934 16.6049 13.7241 16.6502C13.7548 16.6954 13.7941 16.7342 13.8398 16.7643C13.8855 16.7944 13.9367 16.8152 13.9904 16.8255C14.0441 16.8358 14.0994 16.8355 14.153 16.8244C14.2066 16.8134 14.2574 16.7919 14.3027 16.7612C14.5416 16.5995 14.7762 16.4235 15.0003 16.2384C15.0855 16.168 15.1393 16.0666 15.1497 15.9566C15.1602 15.8465 15.1265 15.7368 15.0561 15.6516C14.9857 15.5664 14.8843 15.5127 14.7743 15.5022C14.6642 15.4918 14.5545 15.5255 14.4693 15.5959Z" fill="#1A6545"/>
<path d="M17.6262 11.4406C17.5209 11.4072 17.4067 11.4168 17.3085 11.4675C17.2104 11.5182 17.1364 11.6058 17.1027 11.711C17.023 11.961 16.9298 12.2107 16.8258 12.4534C16.8031 12.5038 16.7906 12.5583 16.7892 12.6136C16.7878 12.6689 16.7974 12.724 16.8174 12.7756C16.8375 12.8271 16.8677 12.8742 16.9061 12.914C16.9446 12.9538 16.9906 12.9855 17.0415 13.0073C17.0923 13.0291 17.147 13.0406 17.2024 13.041C17.2577 13.0415 17.3126 13.0309 17.3638 13.0099C17.415 12.9889 17.4615 12.9579 17.5006 12.9187C17.5397 12.8795 17.5705 12.833 17.5914 12.7817C17.7062 12.5146 17.8087 12.2393 17.8964 11.9641C17.9131 11.9119 17.9193 11.8571 17.9147 11.8025C17.9101 11.748 17.8949 11.6949 17.8698 11.6463C17.8447 11.5977 17.8102 11.5545 17.7684 11.5192C17.7266 11.4839 17.6783 11.4572 17.6262 11.4406Z" fill="#1A6545"/>
<path d="M12.4448 16.83C12.2045 16.933 11.9546 17.026 11.7022 17.1065C11.6501 17.1231 11.6017 17.1499 11.5599 17.1852C11.5181 17.2205 11.4837 17.2637 11.4586 17.3123C11.4335 17.3609 11.4182 17.4139 11.4136 17.4685C11.409 17.523 11.4152 17.5779 11.4318 17.63C11.4484 17.6821 11.4751 17.7305 11.5104 17.7723C11.5457 17.8141 11.5889 17.8485 11.6375 17.8736C11.6861 17.8987 11.7392 17.914 11.7937 17.9186C11.8483 17.9232 11.9031 17.917 11.9553 17.9004C12.233 17.8119 12.508 17.7096 12.7727 17.5962C12.8743 17.5527 12.9545 17.4706 12.9956 17.368C13.0367 17.2654 13.0353 17.1507 12.9918 17.0491C12.9483 16.9475 12.8662 16.8673 12.7636 16.8262C12.6609 16.7852 12.5462 16.7865 12.4446 16.83H12.4448Z" fill="#1A6545"/>
<path d="M5.64293 8.31536C5.64293 7.63247 5.19391 7.08528 4.49895 6.92122C4.11716 6.83079 3.716 6.87245 3.36094 7.03939C3.00588 7.20633 2.71789 7.4887 2.54398 7.8404C2.49529 7.93916 2.48766 8.05319 2.52277 8.15756C2.55789 8.26193 2.63288 8.34815 2.73137 8.3974C2.82986 8.44665 2.94384 8.45491 3.04841 8.42039C3.15297 8.38586 3.23962 8.31135 3.28941 8.21313C3.37837 8.02851 3.52802 7.88003 3.71332 7.7925C3.89863 7.70497 4.10836 7.68371 4.30746 7.73227C4.42527 7.76005 4.80957 7.88434 4.80957 8.31536C4.80957 8.74993 4.30766 9.08513 3.77625 9.44005C3.17789 9.83942 2.5 10.2921 2.5 11.0416C2.5 11.1521 2.5439 11.2581 2.62204 11.3362C2.70019 11.4144 2.80617 11.4583 2.91668 11.4583H5.22625C5.28131 11.4588 5.33592 11.4484 5.38694 11.4277C5.43796 11.407 5.48437 11.3764 5.52349 11.3377C5.56261 11.2989 5.59367 11.2528 5.61486 11.202C5.63605 11.1512 5.64696 11.0967 5.64696 11.0416C5.64696 10.9866 5.63605 10.9321 5.61486 10.8812C5.59367 10.8304 5.56261 10.7843 5.52349 10.7456C5.48437 10.7068 5.43796 10.6762 5.38694 10.6555C5.33592 10.6348 5.28131 10.6244 5.22625 10.625H3.57547C3.75004 10.4596 3.9968 10.2948 4.23891 10.133C4.89715 9.69356 5.64293 9.19552 5.64293 8.31536Z" fill="#1A6545"/>
<path d="M9.58259 9.68747C9.58258 9.57696 9.53867 9.47099 9.46053 9.39285C9.38239 9.31472 9.27641 9.27083 9.16591 9.27083H8.82735V7.05727C8.82734 6.97098 8.80053 6.88681 8.75064 6.81641C8.70074 6.746 8.63022 6.69281 8.54881 6.6642C8.4674 6.63559 8.37911 6.63295 8.29614 6.65666C8.21316 6.68037 8.1396 6.72926 8.08559 6.79657L5.97622 9.42688C5.92715 9.48816 5.89638 9.56205 5.88746 9.64005C5.87855 9.71804 5.89184 9.79697 5.92581 9.86775C5.95979 9.93852 6.01306 9.99826 6.0795 10.0401C6.14593 10.0819 6.22283 10.1041 6.30134 10.1041H7.99403V11.276C7.9935 11.3311 8.00388 11.3857 8.02458 11.4367C8.04528 11.4877 8.07589 11.5341 8.11463 11.5733C8.15338 11.6124 8.19949 11.6434 8.2503 11.6646C8.30112 11.6858 8.35563 11.6967 8.41069 11.6967C8.46575 11.6967 8.52026 11.6858 8.57108 11.6646C8.6219 11.6434 8.66801 11.6124 8.70675 11.5733C8.7455 11.5341 8.7761 11.4877 8.7968 11.4367C8.8175 11.3857 8.82789 11.3311 8.82735 11.276V10.1041H9.16591C9.27642 10.1041 9.3824 10.0602 9.46054 9.9821C9.53869 9.90396 9.58259 9.79798 9.58259 9.68747ZM7.99403 9.27083H7.16981L7.99403 8.24278V9.27083Z" fill="#1A6545"/>
<path d="M11.7152 6.41437C11.6616 6.40352 11.6063 6.40338 11.5526 6.41395C11.4988 6.42452 11.4477 6.44559 11.4022 6.47596C11.3566 6.50632 11.3175 6.54539 11.2871 6.5909C11.2567 6.63642 11.2355 6.6875 11.2249 6.7412L10.2874 11.4287C10.2657 11.5371 10.288 11.6496 10.3492 11.7415C10.4105 11.8335 10.5058 11.8973 10.6142 11.919C10.6412 11.9244 10.6686 11.9271 10.6962 11.9271C10.7924 11.927 10.8857 11.8936 10.9601 11.8326C11.0345 11.7715 11.0854 11.6866 11.1043 11.5923L12.0418 6.90476C12.0526 6.85111 12.0527 6.79587 12.0421 6.74219C12.0315 6.6885 12.0105 6.63743 11.9801 6.59189C11.9498 6.54635 11.9108 6.50723 11.8653 6.47677C11.8199 6.44631 11.7689 6.42511 11.7152 6.41437Z" fill="#1A6545"/>
<path d="M13.8539 11.4586C13.9361 11.4585 14.0166 11.4341 14.085 11.3885C14.1535 11.3428 14.2069 11.2779 14.2386 11.202L15.8011 7.45199C15.8275 7.38868 15.8379 7.31982 15.8313 7.25153C15.8247 7.18324 15.8013 7.11764 15.7633 7.06055C15.7252 7.00346 15.6737 6.95665 15.6132 6.92428C15.5527 6.89191 15.4852 6.87498 15.4166 6.875H13.3072C13.1974 6.87606 13.0924 6.92043 13.0152 6.99845C12.9379 7.07648 12.8945 7.18185 12.8945 7.29166C12.8945 7.40147 12.9379 7.50684 13.0152 7.58487C13.0924 7.66289 13.1974 7.70726 13.3072 7.70832H14.7916L13.4695 10.8815C13.4432 10.9448 13.4329 11.0137 13.4396 11.0819C13.4462 11.1501 13.4696 11.2157 13.5076 11.2727C13.5456 11.3298 13.597 11.3766 13.6574 11.4091C13.7178 11.4415 13.7853 11.4586 13.8539 11.4587V11.4586Z" fill="#1A6545"/>
</svg>
