<svg width="50" height="50" viewBox="0 0 50 50" fill="none" xmlns="http://www.w3.org/2000/svg">
<path d="M39.8409 24.9972C39.8392 27.1561 39.3666 29.2885 38.4561 31.246C37.5456 33.2034 36.2192 34.9386 34.5692 36.3306C32.9192 37.7225 30.9855 38.7378 28.9029 39.3055C26.8203 39.8733 24.6389 39.9798 22.5109 39.6177C20.3828 39.2556 18.3594 38.4337 16.5817 37.2091C14.804 35.9845 13.3147 34.3868 12.2179 32.5275C11.121 30.6681 10.4429 28.5918 10.2309 26.4434C10.0189 24.295 10.278 22.1262 10.9902 20.0882C11.0172 20.0003 11.0617 19.9187 11.1211 19.8483C11.1804 19.778 11.2533 19.7203 11.3355 19.6788C11.4176 19.6373 11.5073 19.6129 11.5991 19.6069C11.6909 19.6009 11.783 19.6135 11.8698 19.644C11.9567 19.6745 12.0365 19.7222 12.1044 19.7842C12.1724 19.8463 12.2271 19.9214 12.2653 20.0051C12.3035 20.0889 12.3244 20.1795 12.3268 20.2715C12.3291 20.3635 12.3129 20.455 12.279 20.5406C11.2225 23.553 11.2693 26.8428 12.4112 29.8239C13.553 32.8051 15.7158 35.2842 18.5144 36.8198C21.3129 38.3553 24.5656 38.8476 27.6932 38.2091C30.8207 37.5705 33.6201 35.8424 35.5929 33.3327C37.5657 30.8229 38.5838 27.6944 38.4659 24.5042C38.3479 21.3139 37.1017 18.2691 34.949 15.9118C32.7963 13.5546 29.877 12.038 26.7108 11.6321C23.5446 11.2262 20.3372 11.9574 17.6596 13.6954C17.5844 13.7444 17.5002 13.7781 17.412 13.7945C17.3237 13.811 17.2331 13.8099 17.1453 13.7913C17.0574 13.7728 16.9741 13.7371 16.9001 13.6863C16.826 13.6355 16.7627 13.5707 16.7137 13.4954C16.6647 13.4202 16.6311 13.336 16.6146 13.2478C16.5981 13.1595 16.5992 13.0688 16.6178 12.981C16.6364 12.8932 16.672 12.8098 16.7228 12.7358C16.7736 12.6617 16.8384 12.5984 16.9137 12.5494C19.154 11.0944 21.7454 10.271 24.4145 10.1661C27.0837 10.0611 29.7317 10.6785 32.0793 11.9531C34.427 13.2277 36.3871 15.1122 37.7532 17.408C39.1192 19.7038 39.8405 22.3257 39.8409 24.9972ZM13.1136 17.2725C13.2606 17.3785 13.4437 17.4219 13.6226 17.3929C13.8016 17.364 13.9617 17.2652 14.0677 17.1182C14.27 16.8377 14.4868 16.5608 14.7121 16.2952C14.8293 16.1568 14.8867 15.9775 14.8717 15.7968C14.8566 15.6161 14.7705 15.4488 14.6321 15.3316C14.4937 15.2144 14.3144 15.1571 14.1338 15.1721C13.9531 15.1871 13.7857 15.2733 13.6686 15.4117C13.421 15.7042 13.1824 16.0093 12.9594 16.3179C12.8533 16.4649 12.8099 16.6481 12.8389 16.8271C12.8678 17.0061 12.9666 17.1663 13.1136 17.2725ZM49.9952 24.9972C50.274 38.3985 38.4002 50.2744 25 49.9952C11.6006 50.2741 -0.274415 38.3989 0.00482791 24.9972C-0.145534 14.0407 7.71037 3.70756 18.3056 0.913258C22.0184 -0.118959 25.9196 -0.278624 29.7043 0.446739C33.4891 1.1721 37.0548 2.76285 40.1231 5.09468C43.1913 7.42652 45.6788 10.4363 47.3914 13.8888C49.1039 17.3414 49.9951 21.1432 49.9952 24.9972ZM47.9495 30.6171C48.8545 26.9252 48.8545 23.0693 47.9495 19.3774L44.8942 20.4593C44.5724 20.5437 44.2846 20.7255 44.0702 20.9799C43.8558 21.2343 43.7254 21.5488 43.6968 21.8803V28.1142C43.7254 28.4456 43.8558 28.76 44.0701 29.0144C44.2844 29.2688 44.5721 29.4507 44.8938 29.5351L47.9495 30.6171ZM37.2539 4.79575L35.8573 7.71973C35.6893 8.00677 35.6141 8.33875 35.642 8.6702C35.67 9.00164 35.7997 9.31632 36.0135 9.57114L40.4212 13.9794C40.676 14.1932 40.9907 14.3229 41.3221 14.3509C41.6535 14.3789 41.9854 14.3037 42.2725 14.1356L45.1961 12.7408C43.2231 9.49456 40.4993 6.76977 37.2539 4.79575ZM19.3812 2.0452L20.4626 5.10041C20.4939 5.18944 20.5307 5.27644 20.5727 5.36094C20.682 5.62384 20.8626 5.85093 21.0942 6.01658C21.3257 6.18223 21.599 6.27983 21.883 6.29836H28.1166C28.4007 6.27986 28.674 6.18227 28.9056 6.01662C29.1372 5.85097 29.3179 5.62387 29.4273 5.36094C29.4693 5.27644 29.5061 5.18944 29.5374 5.10041L30.6188 2.0452C26.9272 1.1437 23.0728 1.1437 19.3812 2.0452ZM4.80078 12.7424L7.72404 14.1387C8.01113 14.3068 8.34313 14.3819 8.67459 14.354C9.00605 14.326 9.32076 14.1963 9.57564 13.9825L13.9834 9.57114C14.1971 9.31632 14.3269 9.00164 14.3549 8.6702C14.3828 8.33875 14.3076 8.00677 14.1396 7.71973L12.7461 4.79575C9.49931 6.76971 6.77436 9.4951 4.80078 12.7424ZM5.1058 29.5351C5.42759 29.4508 5.71541 29.2689 5.92979 29.0145C6.14417 28.7601 6.27461 28.4456 6.30322 28.1142V21.8803C6.27461 21.5488 6.14417 21.2343 5.92979 20.9799C5.71541 20.7255 5.42759 20.5437 5.1058 20.4593L2.05053 19.3774C1.14549 23.0693 1.14549 26.9252 2.05053 30.6171L5.1058 29.5351ZM12.7461 45.1979L14.1412 42.2739C14.3092 41.9869 14.3844 41.6549 14.3564 41.3235C14.3285 40.992 14.1987 40.6773 13.9849 40.4225L9.57564 36.0151C9.32087 35.8012 9.00622 35.6714 8.6748 35.6435C8.34338 35.6155 8.01143 35.6907 7.72443 35.8588L4.80078 37.2521C6.77436 40.4993 9.49931 43.2247 12.7461 45.1987V45.1979ZM30.6188 47.9485L29.5374 44.8932C29.5061 44.8042 29.4693 44.7172 29.4273 44.6327C29.3179 44.3698 29.1372 44.1427 28.9056 43.977C28.674 43.8114 28.4007 43.7138 28.1166 43.6953H21.883C21.599 43.7138 21.3257 43.8114 21.0942 43.9771C20.8626 44.1427 20.682 44.3698 20.5727 44.6327C20.5307 44.7172 20.4939 44.8042 20.4626 44.8932L19.3812 47.9485C23.0728 48.8502 26.9271 48.8505 30.6188 47.9492V47.9485ZM45.1992 37.2521L42.276 35.8557C41.9874 35.6926 41.6564 35.6203 41.3261 35.6481C40.9958 35.676 40.6815 35.8028 40.4244 36.0119L36.0166 40.4233C35.8029 40.6781 35.6731 40.9928 35.6452 41.3242C35.6172 41.6557 35.6924 41.9877 35.8604 42.2747L37.2555 45.1987C40.5016 43.2244 43.226 40.4991 45.1992 37.2521ZM47.5855 31.94L45.4332 31.1776L44.4381 30.826C43.6883 30.578 43.0555 30.0639 42.6591 29.3808C42.4439 28.9949 42.3306 28.5604 42.3299 28.1184V21.8803C42.3549 21.2651 42.5716 20.6731 42.9498 20.1872C43.328 19.7013 43.8486 19.3459 44.4388 19.1707L47.5863 18.056C47.1485 16.631 46.5764 15.2508 45.8776 13.9341L42.8653 15.3707C41.7718 15.9046 40.3431 15.8433 39.4585 14.9461L35.05 10.5375C34.7909 10.2726 34.5889 9.95727 34.4566 9.61113C34.3242 9.26499 34.2644 8.89536 34.2806 8.52513C34.2964 8.04127 34.4139 7.56616 34.6255 7.13072L36.0627 4.11846C34.746 3.41923 33.3657 2.84691 31.9405 2.40923L30.8262 5.55663C30.6508 6.14685 30.2953 6.66747 29.8095 7.04566C29.3236 7.42385 28.7317 7.64068 28.1166 7.66583H21.883C21.2679 7.6406 20.6761 7.42373 20.1904 7.04555C19.7046 6.66737 19.3492 6.14679 19.1738 5.55663L18.0595 2.40923C16.6345 2.84693 15.2543 3.41926 13.9377 4.11846L15.3749 7.13072C15.668 7.672 15.7846 8.29138 15.7085 8.90221C15.6323 9.51304 15.3671 10.0848 14.95 10.5375L10.5419 14.9461C9.65765 15.8445 8.22941 15.9046 7.13548 15.3707L4.12317 13.9341C3.4244 15.2508 2.85228 16.631 2.41452 18.056L5.56196 19.1707C6.15217 19.3459 6.67282 19.7013 7.051 20.1872C7.42917 20.6731 7.64594 21.2651 7.67093 21.8803V28.1142C7.64594 28.7294 7.42917 29.3214 7.051 29.8072C6.67282 30.2931 6.15217 30.6485 5.56196 30.8237L2.41452 31.9384C2.85228 33.3634 3.4244 34.7436 4.12317 36.0604L7.13548 34.6238C7.67662 34.3304 8.29594 34.2136 8.90675 34.2897C9.51755 34.3659 10.0893 34.6311 10.5419 35.0483L14.95 39.457C15.209 39.7219 15.411 40.0372 15.5433 40.3834C15.6756 40.7295 15.7356 41.0991 15.7194 41.4693C15.7036 41.9532 15.5861 42.4283 15.3745 42.8637L13.9373 45.876C15.2539 46.5752 16.6341 47.1475 18.0592 47.5852L19.1734 44.4378C19.3488 43.8477 19.7042 43.3271 20.19 42.9489C20.6757 42.5707 21.2676 42.3538 21.8826 42.3286H28.1166C28.7317 42.3538 29.3236 42.5706 29.8095 42.9488C30.2953 43.327 30.6508 43.8476 30.8262 44.4378L31.9405 47.5852C33.3655 47.1475 34.7457 46.5752 36.0623 45.876L34.6251 42.8637C34.332 42.3224 34.2154 41.7031 34.2916 41.0922C34.3678 40.4814 34.6329 39.9097 35.05 39.457L39.4578 35.0483C39.9104 34.6311 40.4822 34.3659 41.0931 34.2898C41.7039 34.2137 42.3233 34.3304 42.8645 34.6238L45.8768 36.0604C46.5756 34.7436 47.1477 33.3634 47.5855 31.9384V31.94Z" fill="#5CAD8B"/>
</svg>
