<svg width="17" height="20" viewBox="0 0 17 20" fill="none" xmlns="http://www.w3.org/2000/svg">
<path d="M9.76562 17.6562C9.55 17.6562 9.375 17.8312 9.375 18.0469C9.375 18.2625 9.55 18.4375 9.76562 18.4375C9.98125 18.4375 10.1562 18.2625 10.1562 18.0469C10.1562 17.8312 9.98125 17.6562 9.76562 17.6562Z" fill="#1A6545"/>
<path d="M15.2344 1.79688H14.0625V1.17188C14.0625 0.525703 13.5368 0 12.8906 0H3.51562C2.86945 0 2.34375 0.525703 2.34375 1.17188V1.79688H1.17188C0.525703 1.79688 0 2.32258 0 2.96875C0 5.51004 1.18914 7.37762 3.11828 7.89758C3.77961 9.35324 4.82523 10.5907 6.15242 11.4849C6.45813 11.6909 6.64062 12.0435 6.64062 12.4281V14.5804C6.37285 14.6491 6.12719 14.7883 5.92652 14.989C5.63133 15.2843 5.46875 15.6766 5.46875 16.0938H5.07812C4.43195 16.0938 3.90625 16.6195 3.90625 17.2656V19.6094C3.90625 19.8251 4.08117 20 4.29688 20H12.1094C12.3251 20 12.5 19.8251 12.5 19.6094V17.2656C12.5 16.6195 11.9743 16.0938 11.3281 16.0938H10.9375C10.9375 15.367 10.4388 14.7546 9.76562 14.5807V12.4301C9.76562 12.0442 9.94824 11.6909 10.2542 11.4849C11.5815 10.5907 12.6271 9.35316 13.2884 7.89746C15.2173 7.37731 16.4062 5.50984 16.4062 2.96875C16.4062 2.32258 15.8805 1.79688 15.2344 1.79688ZM0.78125 2.96875C0.78125 2.75336 0.956484 2.57812 1.17188 2.57812H2.34375V4.32422C2.34375 5.21465 2.47863 6.0866 2.74492 6.92633C1.50184 6.31059 0.78125 4.88852 0.78125 2.96875ZM11.3281 16.875C11.5435 16.875 11.7188 17.0502 11.7188 17.2656V19.2188H4.6875V17.2656C4.6875 17.0502 4.86273 16.875 5.07812 16.875H11.3281ZM13.2812 4.32422C13.2812 5.39125 13.0688 6.42953 12.6498 7.41016C12.0537 8.80535 11.0744 9.99031 9.81781 10.8369C9.29594 11.1882 8.98438 11.7838 8.98438 12.4301V14.9219C8.98438 15.1376 9.1593 15.3125 9.375 15.3125C9.80578 15.3125 10.1562 15.663 10.1562 16.0938H6.25C6.25 15.8852 6.33133 15.6891 6.47894 15.5414C6.61934 15.4011 6.80359 15.3207 7.00063 15.3131C7.01074 15.3139 7.02094 15.3143 7.03121 15.3143C7.24691 15.3143 7.42184 15.1376 7.42184 14.9219V12.4281C7.42184 11.7832 7.11047 11.1884 6.58895 10.837C5.33227 9.99035 4.35297 8.80539 3.7568 7.41008C3.33758 6.4298 3.125 5.39156 3.125 4.32422V1.17188C3.125 0.956484 3.30023 0.78125 3.51562 0.78125H12.8906C13.106 0.78125 13.2812 0.956484 13.2812 1.17188V4.32422ZM13.6615 6.92625C13.9277 6.08633 14.0625 5.21441 14.0625 4.32422V2.57812H15.2344C15.4498 2.57812 15.625 2.75336 15.625 2.96875C15.625 4.8884 14.9045 6.31043 13.6615 6.92625Z" fill="#1A6545"/>
<path d="M11.2945 4.61563C11.2486 4.47418 11.1264 4.37109 10.9792 4.34977L9.29338 4.10508L8.53936 2.57715C8.47354 2.44379 8.33776 2.35938 8.18905 2.35938C8.04033 2.35938 7.90455 2.44379 7.83873 2.57715L7.08471 4.10508L5.39897 4.34977C5.25178 4.37113 5.12955 4.47422 5.08358 4.61563C5.03764 4.75707 5.07596 4.9123 5.18244 5.01609L6.40252 6.20516L6.11455 7.88434C6.08944 8.0309 6.14967 8.17898 6.26998 8.26641C6.3903 8.35379 6.54979 8.36531 6.68135 8.29613L8.18908 7.50344L9.69717 8.29613C9.82959 8.36574 9.98901 8.35324 10.1085 8.26637C10.2288 8.17895 10.289 8.03082 10.2639 7.88426L9.97561 6.20512L11.1956 5.01609C11.3022 4.9123 11.3405 4.75707 11.2945 4.61563ZM9.28322 5.78898C9.19115 5.87875 9.14908 6.00809 9.17088 6.13484L9.35998 7.23629L8.3708 6.71633C8.25694 6.65652 8.121 6.65652 8.00729 6.71637L7.01842 7.23629L7.20733 6.13477C7.22905 6.00801 7.18701 5.87871 7.09494 5.78898L6.29479 5.00914L7.4003 4.84867C7.52756 4.8302 7.63756 4.75027 7.69447 4.63496L8.18908 3.63266L8.68369 4.63496C8.74061 4.75027 8.85061 4.8302 8.97787 4.84867L10.0834 5.00914L9.28322 5.78898Z" fill="#1A6545"/>
<path d="M8.20312 17.6562H6.64062C6.42492 17.6562 6.25 17.8311 6.25 18.0469C6.25 18.2626 6.42492 18.4375 6.64062 18.4375H8.20312C8.41883 18.4375 8.59375 18.2626 8.59375 18.0469C8.59375 17.8311 8.41883 17.6562 8.20312 17.6562Z" fill="#1A6545"/>
<path d="M14.2188 18.8281H14.4365C14.3256 18.8061 14.251 18.8039 14.2188 18.8281Z" fill="black"/>
</svg>
