<svg width="20" height="20" viewBox="0 0 20 20" fill="none" xmlns="http://www.w3.org/2000/svg">
<path d="M19.0234 17.3228V16.0938C19.0234 15.878 18.8486 15.7031 18.6328 15.7031H15.5859V14.5312C15.5859 14.3155 15.4111 14.1406 15.1953 14.1406H10.3906V13.3203C10.3906 13.1046 10.2157 12.9297 10 12.9297C9.78426 12.9297 9.60938 13.1046 9.60938 13.3203V14.1406H4.80469C4.58895 14.1406 4.41406 14.3155 4.41406 14.5312V15.7031H1.36719C1.15145 15.7031 0.976562 15.878 0.976562 16.0938V17.3228C0.4125 17.4913 0 18.0147 0 18.6328C0 19.3867 0.61332 20 1.36719 20C2.12105 20 2.73438 19.3867 2.73438 18.6328C2.73438 18.0147 2.32188 17.4913 1.75781 17.3228V16.4844H7.85156V17.3228C7.2875 17.4913 6.875 18.0146 6.875 18.6328C6.875 19.3867 7.48832 20 8.24219 20C8.99605 20 9.60938 19.3867 9.60938 18.6328C9.60938 18.0147 9.19687 17.4913 8.63281 17.3228V16.0938C8.63281 15.878 8.45793 15.7031 8.24219 15.7031H5.19531V14.9219H14.8047V15.7031H11.7578C11.5421 15.7031 11.3672 15.878 11.3672 16.0938V17.3228C10.8031 17.4913 10.3906 18.0146 10.3906 18.6328C10.3906 19.3867 11.0039 20 11.7578 20C12.5117 20 13.125 19.3867 13.125 18.6328C13.125 18.0147 12.7125 17.4913 12.1484 17.3228V16.4844H18.2422V17.3228C17.6781 17.4913 17.2656 18.0146 17.2656 18.6328C17.2656 19.3867 17.8789 20 18.6328 20C19.3867 20 20 19.3867 20 18.6328C20 18.0147 19.5875 17.4913 19.0234 17.3228ZM1.95312 18.6328C1.95312 18.9559 1.69027 19.2188 1.36719 19.2188C1.0441 19.2188 0.78125 18.9559 0.78125 18.6328C0.78125 18.3097 1.0441 18.0469 1.36719 18.0469C1.69027 18.0469 1.95312 18.3097 1.95312 18.6328ZM8.82812 18.6328C8.82812 18.9559 8.56527 19.2188 8.24219 19.2188C7.9191 19.2188 7.65625 18.9559 7.65625 18.6328C7.65625 18.3097 7.9191 18.0469 8.24219 18.0469C8.56527 18.0469 8.82812 18.3097 8.82812 18.6328ZM12.3438 18.6328C12.3438 18.9559 12.0809 19.2188 11.7578 19.2188C11.4347 19.2188 11.1719 18.9559 11.1719 18.6328C11.1719 18.3097 11.4347 18.0469 11.7578 18.0469C12.0809 18.0469 12.3438 18.3097 12.3438 18.6328ZM18.6328 19.2188C18.3097 19.2188 18.0469 18.9559 18.0469 18.6328C18.0469 18.3097 18.3097 18.0469 18.6328 18.0469C18.9559 18.0469 19.2188 18.3097 19.2188 18.6328C19.2188 18.9559 18.9559 19.2188 18.6328 19.2188Z" fill="#1A6545"/>
<path d="M10 12.1484C10.2157 12.1484 10.3906 11.9735 10.3906 11.7578C10.3906 11.5421 10.2157 11.3672 10 11.3672C9.78426 11.3672 9.60938 11.5421 9.60938 11.7578C9.60938 11.9735 9.78426 12.1484 10 12.1484Z" fill="#1A6545"/>
<path d="M7.29348 5.26C7.58356 5.95887 8.13661 6.52168 8.82856 6.82492V8.24219H7.46137C7.24563 8.24219 7.07075 8.41707 7.07075 8.63281V9.80469H6.09418C5.99145 9.80469 5.89067 9.84648 5.81801 9.91914C5.74536 9.9918 5.70356 10.0926 5.70356 10.1953V11.7578C5.70356 11.8605 5.74536 11.9613 5.81801 12.034C5.89067 12.1066 5.99145 12.1484 6.09418 12.1484H8.24262C8.45786 12.1484 8.63325 11.973 8.63325 11.7578C8.63325 11.5426 8.45786 11.3672 8.24262 11.3672H6.48481V10.5859H13.5161V11.3672H11.7582C11.543 11.3672 11.3676 11.5426 11.3676 11.7578C11.3676 11.973 11.543 12.1484 11.7582 12.1484H13.9067C14.0094 12.1484 14.1102 12.1066 14.1829 12.034C14.2555 11.9613 14.2973 11.8605 14.2973 11.7578V10.1953C14.2973 10.0926 14.2555 9.9918 14.1829 9.91914C14.1102 9.84648 14.0094 9.80469 13.9067 9.80469H12.9301V8.63281C12.9301 8.41707 12.7552 8.24219 12.5395 8.24219H11.1723V6.82496C11.8643 6.52164 12.4175 5.95871 12.7075 5.25973C13.3213 5.20004 13.8991 4.94387 14.358 4.52305C14.8856 4.03922 15.2118 3.37988 15.2739 2.66656C15.2748 2.65531 15.2739 1.17188 15.2739 1.17188C15.2739 0.956133 15.099 0.78125 14.8832 0.78125H12.9301V0.390625C12.9301 0.174883 12.7552 0 12.5395 0H7.46137C7.24563 0 7.07075 0.174883 7.07075 0.390625V0.78125H5.07856C4.86282 0.78125 4.68793 0.956133 4.68793 1.17188C4.68793 1.17188 4.68696 2.65531 4.68793 2.66656C4.80707 4.03645 5.92778 5.12813 7.29348 5.26ZM12.1489 9.80469H7.852V9.02344H12.1489V9.80469ZM10.3911 7.07031V8.24219H9.60981V7.07031H10.3911ZM10.0004 6.28906C8.81579 6.28906 7.852 5.32527 7.852 4.14062V2.34375H12.1489V4.14062C12.1489 5.32527 11.1851 6.28906 10.0004 6.28906ZM14.4926 1.5625V2.61504C14.4071 3.52 13.7629 4.23543 12.9153 4.43582C12.925 4.33871 12.9301 4.24023 12.9301 4.14059V1.5625H14.4926ZM7.852 0.78125H12.1489V1.5625H7.852V0.78125ZM5.46918 1.5625H7.07075V4.14062C7.07075 4.2402 7.07582 4.33859 7.08559 4.43563C6.22567 4.23297 5.55399 3.50664 5.46918 2.615V1.5625Z" fill="#1A6545"/>
</svg>
